<?xml version="1.0" encoding="utf-8"?>
<!-- Generator: Adobe Illustrator 27.7.0, SVG Export Plug-In . SVG Version: 6.00 Build 0)  -->
<svg version="1.1" id="레이어_1" xmlns="http://www.w3.org/2000/svg" xmlns:xlink="http://www.w3.org/1999/xlink" x="0px"
	 y="0px" viewBox="0 0 78 78" style="enable-background:new 0 0 78 78;" xml:space="preserve">
<style type="text/css">
	.st0{fill:none;stroke:#000000;stroke-width:0.5;stroke-miterlimit:10;}
	.st1{fill:#00D9BF;}
</style>
<line class="st0" x1="5.02" y1="54.06" x2="5.02" y2="53.93"/>
<path class="st0" d="M5.02,54.06"/>
<polygon class="st1" points="29.23,42.84 27.19,39.75 50.81,39.75 48.52,42.84 "/>
<polygon class="st1" points="31.82,35.28 30.33,32.87 47.67,32.87 46,35.28 "/>
<polygon class="st1" points="32.77,29.77 31.48,27.36 46.52,27.36 45.07,29.77 "/>
<polygon class="st1" points="33.46,24.69 32.31,22.82 45.69,22.82 44.39,24.69 "/>
<polygon class="st1" points="34.35,17.84 33.38,16.19 44.62,16.19 43.53,17.84 "/>
<polygon class="st1" points="34.91,14.75 34.06,13.15 43.94,13.15 42.99,14.75 "/>
<polygon class="st1" points="35.99,12 35.36,10.39 39.01,10.39 42.64,10.39 41.94,12 "/>
<path class="st0" d="M41.53,7.41h-5.06c0-0.86,0.43-1.62,1.09-2.08c0.41-0.29,0.9-0.45,1.44-0.45c0.52,0,1.01,0.16,1.41,0.43
	C41.09,5.76,41.53,6.54,41.53,7.41z"/>
<path class="st1" d="M40.69,2.8l-0.28,2.16C40.01,4.7,39.52,4.54,39,4.54c-0.54,0-1.04,0.17-1.44,0.45L37.31,2.8H40.69z"/>
<polygon class="st1" points="34.15,20.94 33.14,19.32 44.86,19.32 43.73,20.94 "/>
<polygon class="st1" points="35.99,9.25 35.36,7.76 39.08,7.76 42.64,7.76 41.94,9.25 39.01,9.25 "/>
<line class="st0" x1="35.39" y1="7.41" x2="42.61" y2="7.41"/>
<line class="st0" x1="41.29" y1="9.3" x2="41.29" y2="10.34"/>
<line class="st0" x1="36.71" y1="9.3" x2="36.71" y2="10.34"/>
<line class="st0" x1="41.29" y1="12.06" x2="41.29" y2="13.09"/>
<line class="st0" x1="36.71" y1="12.06" x2="36.71" y2="13.09"/>
<line class="st0" x1="42.66" y1="14.81" x2="42.66" y2="16.18"/>
<line class="st0" x1="35.34" y1="14.81" x2="35.34" y2="16.18"/>
<line class="st0" x1="43.12" y1="17.9" x2="43.12" y2="19.28"/>
<line class="st0" x1="34.88" y1="17.9" x2="34.88" y2="19.28"/>
<line class="st0" x1="43.12" y1="21" x2="43.12" y2="22.72"/>
<line class="st0" x1="34.88" y1="21" x2="34.88" y2="22.72"/>
<line class="st0" x1="44.04" y1="24.78" x2="44.04" y2="27.19"/>
<line class="st0" x1="33.96" y1="24.78" x2="33.96" y2="27.19"/>
<line class="st0" x1="33.51" y1="29.94" x2="33.51" y2="32.7"/>
<line class="st0" x1="44.49" y1="29.94" x2="44.49" y2="32.7"/>
<line class="st0" x1="32.59" y1="35.45" x2="32.59" y2="39.58"/>
<line class="st0" x1="45.41" y1="35.45" x2="45.41" y2="39.58"/>
<g>
	<rect x="24.55" y="48.58" class="st0" width="28.89" height="3.1"/>
	<g>
		<rect x="26.1" y="51.67" class="st0" width="25.8" height="10.66"/>
		<rect x="26.1" y="51.67" class="st0" width="2.06" height="10.66"/>
		<rect x="34.01" y="51.67" class="st0" width="2.06" height="10.66"/>
		<rect x="41.58" y="51.67" class="st0" width="2.06" height="10.66"/>
		<rect x="49.84" y="51.67" class="st0" width="2.06" height="10.66"/>
	</g>
	<line class="st0" x1="29.63" y1="43.01" x2="29.63" y2="48.69"/>
	<line class="st0" x1="48.21" y1="43.01" x2="48.21" y2="48.52"/>
</g>
<line class="st0" x1="28.34" y1="40.61" x2="49.66" y2="40.61"/>
<line class="st0" x1="29.2" y1="41.75" x2="48.8" y2="41.75"/>
<line class="st0" x1="31.95" y1="34.07" x2="46.05" y2="34.07"/>
<line class="st0" x1="32.46" y1="27.88" x2="45.54" y2="27.88"/>
<line class="st0" x1="33.67" y1="23.41" x2="44.33" y2="23.41"/>
<line class="st0" x1="34.53" y1="19.97" x2="43.47" y2="19.97"/>
<line class="st0" x1="34.7" y1="16.87" x2="43.3" y2="16.87"/>
<line class="st0" x1="35.22" y1="13.78" x2="42.78" y2="13.78"/>
<g>
	<rect x="8.09" y="63.42" class="st1" width="27.01" height="11.68"/>
	<rect x="42.89" y="63.42" class="st1" width="27.01" height="11.68"/>
</g>
<line class="st0" x1="35.31" y1="65.03" x2="42.64" y2="65.03"/>
<line class="st0" x1="35.31" y1="66.64" x2="42.64" y2="66.64"/>
<line class="st0" x1="35.31" y1="68.66" x2="42.64" y2="68.66"/>
<line class="st0" x1="35.31" y1="70.67" x2="42.64" y2="70.67"/>
<line class="st0" x1="35.31" y1="72.68" x2="42.64" y2="72.68"/>
<line class="st0" x1="35.31" y1="74.7" x2="42.64" y2="74.7"/>
<line class="st0" x1="45.62" y1="62.28" x2="67.59" y2="62.28"/>
<line class="st0" x1="10.13" y1="62.28" x2="32.11" y2="62.28"/>
<line class="st0" x1="67.59" y1="60.91" x2="67.59" y2="63.65"/>
<line class="st0" x1="45.62" y1="60.68" x2="45.62" y2="63.42"/>
<line class="st0" x1="32.34" y1="60.68" x2="32.34" y2="63.42"/>
<line class="st0" x1="10.36" y1="60.68" x2="10.36" y2="63.42"/>
</svg>
