<?xml version="1.0" encoding="utf-8"?>
<!-- Generator: Adobe Illustrator 27.7.0, SVG Export Plug-In . SVG Version: 6.00 Build 0)  -->
<svg version="1.1" id="레이어_1" xmlns="http://www.w3.org/2000/svg" xmlns:xlink="http://www.w3.org/1999/xlink" x="0px"
	 y="0px" viewBox="0 0 78 78" style="enable-background:new 0 0 78 78;" xml:space="preserve">
<style type="text/css">
	.st0{fill:none;stroke:#000000;stroke-width:0.5;stroke-miterlimit:10;}
	.st1{fill:#00D9BF;}
</style>
<line class="st0" x1="5.02" y1="54.06" x2="5.02" y2="53.93"/>
<path class="st0" d="M5.02,54.06"/>
<g>
	<path class="st1" d="M53.23,62.06c0.04,0.94,0.02,1.88,0.02,2.83c0,0.98,0,1.96,0,2.94c0,1.93,0,3.86,0,5.8c0,0.18,0,0.37,0,0.55
		c0,0.57,0,1.13,0,1.7c0,0,0,0.1,0,0.1c0,0-4.17,0-4.17,0V62.06c0-0.32,0.02-0.63,0.07-0.93c0.22-1.68,1.04-2.91,2.01-2.91
		c0.7,0,1.4,0.68,1.78,1.87C53.12,60.71,53.2,61.38,53.23,62.06z"/>
	<path class="st1" d="M29.17,62.06c0.04,0.94,0.02,1.88,0.02,2.83c0,0.98,0,1.96,0,2.94c0,1.93,0,3.86,0,5.8c0,0.18,0,0.37,0,0.55
		c0,0.57,0,1.13,0,1.7c0,0,0,0.1,0,0.1c0,0-4.17,0-4.17,0V62.06c0-0.32,0.02-0.63,0.07-0.93c0.22-1.68,1.04-2.91,2.01-2.91
		c0.7,0,1.4,0.68,1.78,1.87C29.06,60.71,29.14,61.38,29.17,62.06z"/>
	<path class="st1" d="M44.13,59.85c0.09,1.09,0.04,2.18,0.04,3.28c0,1.14-0.01,2.27-0.01,3.41c-0.01,2.24-0.01,4.48-0.01,6.72
		c0,0.21,0,0.43,0,0.64c0,0.66,0,1.31,0,1.97c0,0.01,0,0.11,0,0.11c0,0-9.77,0-9.77,0V59.85c0-0.38,0.05-0.73,0.15-1.08
		c0.52-1.95,2.43-3.38,4.71-3.38c1.65,0,3.27,0.79,4.17,2.17C43.88,58.28,44.06,59.05,44.13,59.85z"/>
	<rect x="18.6" y="23.71" class="st0" width="1.18" height="5.92"/>
	<rect x="58.04" y="23.71" class="st0" width="1.18" height="5.92"/>
	<polygon class="st0" points="47.78,31.99 47.78,75.97 30.43,75.97 30.43,54.08 30.43,54.08 30.43,31.99 	"/>
	<rect x="31.22" y="25.68" class="st0" width="15.78" height="6.31"/>
	<rect x="32.4" y="19.37" class="st0" width="13.41" height="6.31"/>
	<rect x="23.72" y="53.88" class="st0" width="6.71" height="22.09"/>
	<rect x="15.05" y="41.06" class="st0" width="8.68" height="34.91"/>
	<rect x="54.49" y="41.06" class="st0" width="8.68" height="34.91"/>
	<rect x="47.78" y="53.88" class="st0" width="6.71" height="22.09"/>
	<path class="st0" d="M43.06,31.99c0-2.17-1.77-3.94-3.95-3.94c-2.18,0-3.95,1.76-3.95,3.94H43.06z"/>
	<path class="st0" d="M37.55,35.94c0.03,0.4,0.01,0.8,0.01,1.2c0,0.42,0,0.83,0,1.25c0,0.82,0,1.64,0,2.47c0,0.08,0,0.16,0,0.23
		c0,0.24,0,0.48,0,0.72c0,0,0,0.04,0,0.04c0,0-2.82,0-2.82,0v-5.92c0-0.14,0.02-0.27,0.04-0.39c0.15-0.71,0.7-1.24,1.36-1.24
		c0.48,0,0.94,0.29,1.2,0.8C37.48,35.36,37.53,35.64,37.55,35.94z"/>
	<path class="st0" d="M52.07,47.14c0.02,0.34,0.01,0.68,0.01,1.01c0,0.35,0,0.7,0,1.06c0,0.69,0,1.39,0,2.08c0,0.07,0,0.13,0,0.2
		c0,0.2,0,0.41,0,0.61c0,0,0,0.03,0,0.03c0,0-2.38,0-2.38,0v-4.99c0-0.12,0.01-0.23,0.04-0.33c0.13-0.6,0.59-1.05,1.15-1.05
		c0.4,0,0.8,0.25,1.01,0.67C52.01,46.66,52.06,46.9,52.07,47.14z"/>
	<path class="st0" d="M28.8,47.14c0.02,0.34,0.01,0.68,0.01,1.01c0,0.35,0,0.7,0,1.06c0,0.69,0,1.39,0,2.08c0,0.07,0,0.13,0,0.2
		c0,0.2,0,0.41,0,0.61c0,0,0,0.03,0,0.03c0,0-2.38,0-2.38,0v-4.99c0-0.12,0.01-0.23,0.04-0.33c0.13-0.6,0.59-1.05,1.15-1.05
		c0.4,0,0.8,0.25,1.01,0.67C28.74,46.66,28.78,46.9,28.8,47.14z"/>
	<path class="st1" d="M20.52,48.35c0.02,0.26,0.01,0.52,0.01,0.77c0,0.27,0,0.54,0,0.8c0,0.53,0,1.06,0,1.59c0,0.05,0,0.1,0,0.15
		c0,0.16,0,0.31,0,0.47c0,0,0,0.03,0,0.03c0,0-2.38,0-2.38,0v-3.81c0-0.09,0.01-0.17,0.04-0.25c0.13-0.46,0.59-0.8,1.15-0.8
		c0.4,0,0.8,0.19,1.01,0.51C20.46,47.98,20.5,48.16,20.52,48.35z"/>
	<path class="st0" d="M17.85,34.94c0.02,0.26,0.01,0.52,0.01,0.77c0,0.27,0,0.54,0,0.8c0,0.53,0,1.06,0,1.59c0,0.05,0,0.1,0,0.15
		c0,0.16,0,0.31,0,0.47c0,0,0,0.03,0,0.03c0,0-1.73,0-1.73,0v-3.81c0-0.09,0.01-0.17,0.03-0.25c0.09-0.46,0.43-0.8,0.84-0.8
		c0.29,0,0.58,0.19,0.74,0.51C17.81,34.57,17.84,34.75,17.85,34.94z"/>
	<path class="st0" d="M20.22,34.94c0.02,0.26,0.01,0.52,0.01,0.77c0,0.27,0,0.54,0,0.8c0,0.53,0,1.06,0,1.59c0,0.05,0,0.1,0,0.15
		c0,0.16,0,0.31,0,0.47c0,0,0,0.03,0,0.03c0,0-1.73,0-1.73,0v-3.81c0-0.09,0.01-0.17,0.03-0.25c0.09-0.46,0.43-0.8,0.84-0.8
		c0.29,0,0.58,0.19,0.74,0.51C20.17,34.57,20.21,34.75,20.22,34.94z"/>
	<path class="st0" d="M22.58,34.94c0.02,0.26,0.01,0.52,0.01,0.77c0,0.27,0,0.54,0,0.8c0,0.53,0,1.06,0,1.59c0,0.05,0,0.1,0,0.15
		c0,0.16,0,0.31,0,0.47c0,0,0,0.03,0,0.03c0,0-1.73,0-1.73,0v-3.81c0-0.09,0.01-0.17,0.03-0.25c0.09-0.46,0.43-0.8,0.84-0.8
		c0.29,0,0.58,0.19,0.74,0.51C22.54,34.57,22.57,34.75,22.58,34.94z"/>
	<path class="st0" d="M57.29,34.94c0.02,0.26,0.01,0.52,0.01,0.77c0,0.27,0,0.54,0,0.8c0,0.53,0,1.06,0,1.59c0,0.05,0,0.1,0,0.15
		c0,0.16,0,0.31,0,0.47c0,0,0,0.03,0,0.03c0,0-1.73,0-1.73,0v-3.81c0-0.09,0.01-0.17,0.03-0.25c0.09-0.46,0.43-0.8,0.84-0.8
		c0.29,0,0.58,0.19,0.74,0.51C57.25,34.57,57.28,34.75,57.29,34.94z"/>
	<path class="st0" d="M59.66,34.94c0.02,0.26,0.01,0.52,0.01,0.77c0,0.27,0,0.54,0,0.8c0,0.53,0,1.06,0,1.59c0,0.05,0,0.1,0,0.15
		c0,0.16,0,0.31,0,0.47c0,0,0,0.03,0,0.03c0,0-1.73,0-1.73,0v-3.81c0-0.09,0.01-0.17,0.03-0.25c0.09-0.46,0.43-0.8,0.84-0.8
		c0.29,0,0.58,0.19,0.74,0.51C59.62,34.57,59.65,34.75,59.66,34.94z"/>
	<path class="st0" d="M62.03,34.94c0.02,0.26,0.01,0.52,0.01,0.77c0,0.27,0,0.54,0,0.8c0,0.53,0,1.06,0,1.59c0,0.05,0,0.1,0,0.15
		c0,0.16,0,0.31,0,0.47c0,0,0,0.03,0,0.03c0,0-1.73,0-1.73,0v-3.81c0-0.09,0.01-0.17,0.03-0.25c0.09-0.46,0.43-0.8,0.84-0.8
		c0.29,0,0.58,0.19,0.74,0.51C61.98,34.57,62.02,34.75,62.03,34.94z"/>
	<path class="st0" d="M35.21,21.13c0.02,0.26,0.01,0.52,0.01,0.77c0,0.27,0,0.54,0,0.8c0,0.53,0,1.06,0,1.59c0,0.05,0,0.1,0,0.15
		c0,0.16,0,0.31,0,0.47c0,0,0,0.03,0,0.03c0,0-1.73,0-1.73,0v-3.81c0-0.09,0.01-0.17,0.03-0.25c0.09-0.46,0.43-0.8,0.84-0.8
		c0.29,0,0.58,0.19,0.74,0.51C35.16,20.76,35.19,20.94,35.21,21.13z"/>
	<path class="st0" d="M37.57,21.13c0.02,0.26,0.01,0.52,0.01,0.77c0,0.27,0,0.54,0,0.8c0,0.53,0,1.06,0,1.59c0,0.05,0,0.1,0,0.15
		c0,0.16,0,0.31,0,0.47c0,0,0,0.03,0,0.03c0,0-1.73,0-1.73,0v-3.81c0-0.09,0.01-0.17,0.03-0.25c0.09-0.46,0.43-0.8,0.84-0.8
		c0.29,0,0.58,0.19,0.74,0.51C37.53,20.76,37.56,20.94,37.57,21.13z"/>
	<path class="st0" d="M39.94,21.13c0.02,0.26,0.01,0.52,0.01,0.77c0,0.27,0,0.54,0,0.8c0,0.53,0,1.06,0,1.59c0,0.05,0,0.1,0,0.15
		c0,0.16,0,0.31,0,0.47c0,0,0,0.03,0,0.03c0,0-1.73,0-1.73,0v-3.81c0-0.09,0.01-0.17,0.03-0.25c0.09-0.46,0.43-0.8,0.84-0.8
		c0.29,0,0.58,0.19,0.74,0.51C39.89,20.76,39.93,20.94,39.94,21.13z"/>
	<path class="st0" d="M42.31,21.13c0.02,0.26,0.01,0.52,0.01,0.77c0,0.27,0,0.54,0,0.8c0,0.53,0,1.06,0,1.59c0,0.05,0,0.1,0,0.15
		c0,0.16,0,0.31,0,0.47c0,0,0,0.03,0,0.03c0,0-1.73,0-1.73,0v-3.81c0-0.09,0.01-0.17,0.03-0.25c0.09-0.46,0.43-0.8,0.84-0.8
		c0.29,0,0.58,0.19,0.74,0.51C42.26,20.76,42.29,20.94,42.31,21.13z"/>
	<path class="st0" d="M44.67,21.13c0.02,0.26,0.01,0.52,0.01,0.77c0,0.27,0,0.54,0,0.8c0,0.53,0,1.06,0,1.59c0,0.05,0,0.1,0,0.15
		c0,0.16,0,0.31,0,0.47c0,0,0,0.03,0,0.03c0,0-1.73,0-1.73,0v-3.81c0-0.09,0.01-0.17,0.03-0.25c0.09-0.46,0.43-0.8,0.84-0.8
		c0.29,0,0.58,0.19,0.74,0.51C44.63,20.76,44.66,20.94,44.67,21.13z"/>
	<path class="st1" d="M20.52,56.63c0.02,0.26,0.01,0.52,0.01,0.77c0,0.27,0,0.54,0,0.8c0,0.53,0,1.06,0,1.59c0,0.05,0,0.1,0,0.15
		c0,0.16,0,0.31,0,0.47c0,0,0,0.03,0,0.03c0,0-2.38,0-2.38,0v-3.81c0-0.09,0.01-0.17,0.04-0.25c0.13-0.46,0.59-0.8,1.15-0.8
		c0.4,0,0.8,0.19,1.01,0.51C20.46,56.26,20.5,56.44,20.52,56.63z"/>
	<path class="st1" d="M20.52,64.91c0.02,0.26,0.01,0.52,0.01,0.77c0,0.27,0,0.54,0,0.8c0,0.53,0,1.06,0,1.59c0,0.05,0,0.1,0,0.15
		c0,0.16,0,0.31,0,0.47c0,0,0,0.03,0,0.03c0,0-2.38,0-2.38,0v-3.81c0-0.09,0.01-0.17,0.04-0.25c0.13-0.46,0.59-0.8,1.15-0.8
		c0.4,0,0.8,0.19,1.01,0.51C20.46,64.54,20.5,64.73,20.52,64.91z"/>
	<path class="st1" d="M59.96,48.35c0.02,0.26,0.01,0.52,0.01,0.77c0,0.27,0,0.54,0,0.8c0,0.53,0,1.06,0,1.59c0,0.05,0,0.1,0,0.15
		c0,0.16,0,0.31,0,0.47c0,0,0,0.03,0,0.03c0,0-2.38,0-2.38,0v-3.81c0-0.09,0.01-0.17,0.04-0.25c0.13-0.46,0.59-0.8,1.15-0.8
		c0.4,0,0.8,0.19,1.01,0.51C59.9,47.98,59.95,48.16,59.96,48.35z"/>
	<path class="st1" d="M59.96,56.63c0.02,0.26,0.01,0.52,0.01,0.77c0,0.27,0,0.54,0,0.8c0,0.53,0,1.06,0,1.59c0,0.05,0,0.1,0,0.15
		c0,0.16,0,0.31,0,0.47c0,0,0,0.03,0,0.03c0,0-2.38,0-2.38,0v-3.81c0-0.09,0.01-0.17,0.04-0.25c0.13-0.46,0.59-0.8,1.15-0.8
		c0.4,0,0.8,0.19,1.01,0.51C59.9,56.26,59.95,56.44,59.96,56.63z"/>
	<path class="st1" d="M59.96,64.91c0.02,0.26,0.01,0.52,0.01,0.77c0,0.27,0,0.54,0,0.8c0,0.53,0,1.06,0,1.59c0,0.05,0,0.1,0,0.15
		c0,0.16,0,0.31,0,0.47c0,0,0,0.03,0,0.03c0,0-2.38,0-2.38,0v-3.81c0-0.09,0.01-0.17,0.04-0.25c0.13-0.46,0.59-0.8,1.15-0.8
		c0.4,0,0.8,0.19,1.01,0.51C59.9,64.54,59.95,64.73,59.96,64.91z"/>
	<path class="st0" d="M43.47,35.94c0.03,0.4,0.01,0.8,0.01,1.2c0,0.42,0,0.83,0,1.25c0,0.82,0,1.64,0,2.47c0,0.08,0,0.16,0,0.23
		c0,0.24,0,0.48,0,0.72c0,0,0,0.04,0,0.04c0,0-2.82,0-2.82,0v-5.92c0-0.14,0.02-0.27,0.04-0.39c0.15-0.71,0.7-1.24,1.36-1.24
		c0.48,0,0.94,0.29,1.2,0.8C43.4,35.36,43.45,35.64,43.47,35.94z"/>
	<path class="st0" d="M52.53,63.15c0.03,0.86,0.01,1.72,0.01,2.58c0,0.89,0,1.79,0,2.68c0,1.76,0,3.53,0,5.29c0,0.17,0,0.34,0,0.5
		c0,0.52,0,1.03,0,1.55c0,0,0,0.09,0,0.09c0,0-2.75,0-2.75,0v-12.7c0-0.3,0.02-0.58,0.04-0.85c0.15-1.53,0.69-2.66,1.33-2.66
		c0.46,0,0.92,0.62,1.18,1.71C52.46,61.91,52.51,62.52,52.53,63.15z"/>
	<path class="st0" d="M43.43,60.39c0.08,1.05,0.04,2.11,0.03,3.17c0,1.1-0.01,2.2-0.01,3.3c-0.01,2.17-0.01,4.33-0.01,6.5
		c0,0.21,0,0.41,0,0.62c0,0.64,0,1.27,0,1.91c0,0.01,0,0.11,0,0.11c0,0-8.3,0-8.3,0v-15.6c0-0.36,0.05-0.71,0.13-1.04
		c0.44-1.88,2.07-3.27,4-3.27c1.4,0,2.78,0.77,3.55,2.1C43.21,58.87,43.37,59.62,43.43,60.39z"/>
	<line class="st0" x1="31.22" y1="27.26" x2="47" y2="27.26"/>
	<line class="st0" x1="30.43" y1="33.17" x2="47.98" y2="33.17"/>
	<line class="st0" x1="32.8" y1="42.64" x2="45.42" y2="42.64"/>
	<line class="st0" x1="32.8" y1="43.82" x2="45.42" y2="43.82"/>
	<circle class="st1" cx="39.11" cy="30.02" r="1.18"/>
	<circle class="st0" cx="27.67" cy="43.82" r="1.18"/>
	<circle class="st0" cx="50.94" cy="43.82" r="1.18"/>
	<circle class="st1" cx="39.11" cy="49.15" r="3.94"/>
	<line class="st0" x1="32.8" y1="33.17" x2="32.8" y2="75.77"/>
	<line class="st0" x1="45.42" y1="33.17" x2="45.42" y2="75.77"/>
	<line class="st0" x1="32.8" y1="54.08" x2="45.42" y2="54.08"/>
	<line class="st0" x1="23.72" y1="44.22" x2="30.43" y2="38.7"/>
	<line class="st0" x1="23.72" y1="42.64" x2="30.43" y2="37.12"/>
	<line class="st0" x1="54.49" y1="43.82" x2="47.78" y2="38.3"/>
	<line class="st0" x1="54.49" y1="42.25" x2="47.78" y2="36.72"/>
	<rect x="15.05" y="39.49" class="st0" width="8.68" height="1.58"/>
	<rect x="54.49" y="39.49" class="st0" width="8.68" height="1.58"/>
	<rect x="15.05" y="33.17" class="st0" width="8.68" height="6.31"/>
	<rect x="54.49" y="33.17" class="st0" width="8.68" height="6.31"/>
	<path class="st0" d="M42.26,3.59v0.79H39.5v7.02c-0.11-0.01-0.23-0.01-0.35-0.01c-0.15,0-0.29,0-0.44,0.01V4.38h-2.76V3.59h2.76
		V2.01h0.79v1.58H42.26z"/>
	<circle class="st0" cx="39.11" cy="49.15" r="2.96"/>
	<path class="st0" d="M28.47,63.15c0.03,0.86,0.01,1.72,0.01,2.58c0,0.89,0,1.79,0,2.68c0,1.76,0,3.53,0,5.29c0,0.17,0,0.34,0,0.5
		c0,0.52,0,1.03,0,1.55c0,0,0,0.09,0,0.09c0,0-2.75,0-2.75,0v-12.7c0-0.3,0.02-0.58,0.04-0.85c0.15-1.53,0.69-2.66,1.33-2.66
		c0.46,0,0.92,0.62,1.18,1.71C28.39,61.91,28.45,62.52,28.47,63.15z"/>
	<path class="st1" d="M47.13,19.57h-16.1c0-4.37,3.37-7.93,7.61-8.16c0.15-0.01,0.29-0.01,0.44-0.01c0.12,0,0.24,0,0.35,0.01
		C43.71,11.59,47.13,15.17,47.13,19.57z"/>
	<path class="st1" d="M24.3,33.37c0-2.93-2.25-5.3-5.02-5.3s-5.02,2.37-5.02,5.3H24.3z"/>
	<path class="st1" d="M63.74,33.37c0-2.91-2.25-5.27-5.02-5.27c-2.77,0-5.02,2.36-5.02,5.27H63.74z"/>
	<line class="st0" x1="18" y1="60.78" x2="20.77" y2="60.78"/>
	<line class="st0" x1="18" y1="52.5" x2="20.77" y2="52.5"/>
	<line class="st0" x1="18" y1="69.07" x2="20.77" y2="69.07"/>
	<line class="st0" x1="57.45" y1="60.78" x2="60.21" y2="60.78"/>
	<line class="st0" x1="57.45" y1="52.5" x2="60.21" y2="52.5"/>
	<line class="st0" x1="57.45" y1="69.07" x2="60.21" y2="69.07"/>
	<circle class="st0" cx="39.11" cy="30.02" r="0.39"/>
	<path class="st0" d="M16.12,32.44c0,0,0-1.63,2.03-3.21"/>
	<path class="st0" d="M22.49,32.44c0,0,0-1.63-2.03-3.21"/>
	<line class="st0" x1="19.39" y1="29.23" x2="19.39" y2="32.39"/>
	<path class="st0" d="M55.57,32.64c0,0,0-1.63,2.03-3.21"/>
	<path class="st0" d="M61.93,32.64c0,0,0-1.63-2.03-3.21"/>
	<line class="st0" x1="58.83" y1="29.43" x2="58.83" y2="32.58"/>
	<path class="st0" d="M34.47,18.44c0,0,0-2.46,3.06-4.84"/>
	<path class="st0" d="M44.08,18.44c0,0,0-2.46-3.06-4.84"/>
	<line class="st0" x1="39.4" y1="13.59" x2="39.4" y2="18.35"/>
</g>
</svg>
