<?xml version="1.0" encoding="utf-8"?>
<!-- Generator: Adobe Illustrator 27.7.0, SVG Export Plug-In . SVG Version: 6.00 Build 0)  -->
<svg version="1.1" id="레이어_1" xmlns="http://www.w3.org/2000/svg" xmlns:xlink="http://www.w3.org/1999/xlink" x="0px"
	 y="0px" viewBox="0 0 78 78" style="enable-background:new 0 0 78 78;" xml:space="preserve">
<style type="text/css">
	.st0{fill:none;stroke:#000000;stroke-width:0.5;stroke-miterlimit:10;}
	.st1{fill:#00D9BF;}
</style>
<line class="st0" x1="5.02" y1="54.06" x2="5.02" y2="53.93"/>
<path class="st0" d="M5.02,54.06"/>
<rect x="12.13" y="74.39" class="st1" width="53.73" height="2.11"/>
<path class="st1" d="M61.61,58.63l-7.79-7.39l-0.4-0.31c-0.46,0.27-1.06,0.27-1.53-0.05c-0.3-0.21-0.5-0.51-0.58-0.84l-1.06-0.02
	l-1.13,1.45c0,0-8.5-0.87-9.26-1.68c-0.76-0.81,0.32-0.82,0.32-0.82l10.71,0.23l0.49-0.04c0.04-0.09,0.08-0.17,0.14-0.25
	c0.24-0.35,0.6-0.55,0.99-0.6l0.23-1.11l-1.22-1.39c0,0,2.43-8.14,3.37-8.72c0.94-0.58,0.74,0.47,0.74,0.47l-2.21,10.43l-0.05,0.5
	c0.04,0.02,0.08,0.04,0.11,0.07c0.57,0.39,0.77,1.11,0.51,1.72l0.85,0.8l1.82-0.3c0,0,5.73,6.36,5.74,7.47
	C62.41,59.36,61.61,58.63,61.61,58.63z"/>
<path class="st1" d="M60.02,31.22l-21.61-3.5l-1.03-0.06c-0.46,1-1.46,1.69-2.63,1.69c-0.75,0-1.43-0.29-1.95-0.75L31,29.79
	l-0.23,3.77c0,0-15.31,8.4-17.53,7.89c-2.22-0.5-0.4-1.75-0.4-1.75l18.29-12.03l0.78-0.64c-0.04-0.19-0.06-0.38-0.06-0.58
	c0-0.87,0.38-1.64,0.98-2.17l-0.88-2.16l-3.65-0.95c0,0-5.28-16.65-4.36-18.73c0.92-2.08,1.8-0.06,1.8-0.06L34,22.66l0.48,0.9
	c0.09-0.01,0.18-0.01,0.27-0.01c1.4,0,2.57,1,2.84,2.32l2.35,0.38l2.72-2.62c0,0,16.96,4.16,18.25,6.03
	C62.21,31.53,60.02,31.22,60.02,31.22z"/>
<polygon class="st0" points="41.3,72.14 41.3,74.19 31.18,74.19 31.18,72.14 33.26,72.14 35.45,30.76 37.03,30.76 39.27,72.14 "/>
<path class="st0" d="M59.9,31.69l-20.42-3.3l-0.97-0.05c-0.43,0.94-1.38,1.59-2.49,1.59c-0.71,0-1.35-0.27-1.84-0.71l-1.7,1.13
	l-0.22,3.56c0,0-14.47,7.93-16.56,7.46c-2.1-0.47-0.38-1.66-0.38-1.66l17.28-11.36l0.73-0.6c-0.03-0.18-0.05-0.36-0.05-0.55
	c0-0.82,0.36-1.55,0.93-2.05l-0.83-2.04l-3.45-0.9c0,0-4.99-15.73-4.12-17.69c0.87-1.96,1.7-0.05,1.7-0.05l7.81,19.16l0.46,0.85
	c0.08-0.01,0.17-0.01,0.25-0.01c1.32,0,2.43,0.94,2.69,2.19l2.22,0.36l2.57-2.48c0,0,16.03,3.93,17.25,5.7
	C61.97,31.98,59.9,31.69,59.9,31.69z"/>
<polygon class="st0" points="53.52,73.16 53.52,74.16 49.56,74.16 49.56,73.16 50.37,73.16 51.23,53.01 51.85,53.01 52.73,73.16 "/>
<path class="st0" d="M60.68,58.84l-7.78-7.25l-0.4-0.3c-0.45,0.28-1.05,0.29-1.52-0.03c-0.3-0.2-0.5-0.5-0.58-0.83l-1.05-0.01
	l-1.11,1.46c0,0-8.45-0.75-9.21-1.55c-0.76-0.8,0.31-0.82,0.31-0.82l10.63,0.08l0.49-0.05c0.04-0.09,0.08-0.17,0.13-0.25
	c0.23-0.35,0.6-0.56,0.98-0.61l0.23-1.11l-1.22-1.37c0,0,2.36-8.15,3.3-8.74c0.93-0.59,0.74,0.46,0.74,0.46l-2.14,10.42l-0.05,0.49
	c0.04,0.02,0.08,0.04,0.11,0.07c0.57,0.38,0.77,1.1,0.52,1.7l0.84,0.79l1.81-0.33c0,0,5.72,6.26,5.74,7.36
	C61.48,59.56,60.68,58.84,60.68,58.84z"/>
</svg>
