<?xml version="1.0" encoding="utf-8"?>
<!-- Generator: Adobe Illustrator 27.7.0, SVG Export Plug-In . SVG Version: 6.00 Build 0)  -->
<svg version="1.1" id="레이어_1" xmlns="http://www.w3.org/2000/svg" xmlns:xlink="http://www.w3.org/1999/xlink" x="0px"
	 y="0px" viewBox="0 0 78 78" style="enable-background:new 0 0 78 78;" xml:space="preserve">
<style type="text/css">
	.st0{fill:none;stroke:#000000;stroke-width:0.5;stroke-miterlimit:10;}
	.st1{fill:none;stroke:#000000;stroke-miterlimit:10;}
	.st2{fill:#00D9BF;}
	.st3{fill:#00D9BF;stroke:#000000;stroke-width:0.5;stroke-miterlimit:10;}
</style>
<line class="st0" x1="15.02" y1="42.56" x2="23.27" y2="42.56"/>
<line class="st0" x1="54.6" y1="42.56" x2="63.26" y2="42.56"/>
<path class="st0" d="M44.36,54.26v2.34c-3.57,0.17-7.15,0.17-10.72,0.01v-2.35h0.01c0-1.95,2.4-3.53,5.35-3.53
	c2.95,0,5.35,1.58,5.35,3.53H44.36z"/>
<rect x="31.37" y="44.92" class="st0" width="15.25" height="1.18"/>
<polygon class="st0" points="76.49,44.79 76.49,54.26 65.3,54.26 66.41,54.11 66.41,48.81 64.87,48.81 64.87,49.55 62.39,49.55 
	62.39,48.81 60.33,48.81 60.33,49.55 57.86,49.55 57.86,48.81 55.8,48.81 55.8,49.55 53.32,49.55 53.32,48.81 24.88,48.81 
	24.88,49.55 22.4,49.55 22.4,48.81 20.34,48.81 20.34,49.55 17.87,49.55 17.87,48.81 15.81,48.81 15.81,49.55 13.33,49.55 
	13.33,48.81 11.58,48.81 11.58,54.11 12.66,54.26 1.51,54.26 1.51,44.79 3.91,44.79 3.91,46.12 7.29,46.12 7.29,44.79 10.11,44.79 
	10.11,46.12 13.49,46.12 13.49,44.79 16.31,44.79 16.31,46.12 19.69,46.12 19.69,44.79 27.66,44.79 27.66,45.72 26.42,45.72 
	26.42,48.66 51.57,48.66 51.57,45.72 50.34,45.72 50.34,44.79 58.59,44.79 58.59,46.12 61.97,46.12 61.97,44.79 64.79,44.79 
	64.79,46.12 68.18,46.12 68.18,44.79 70.99,44.79 70.99,46.12 74.38,46.12 74.38,44.79 "/>
<rect x="26.42" y="46.1" class="st0" width="25.15" height="2.94"/>
<line class="st0" x1="49.1" y1="45.17" x2="46.63" y2="45.17"/>
<line class="st1" x1="4.62" y1="54.23" x2="4.62" y2="54.11"/>
<line class="st0" x1="31.37" y1="45.17" x2="28.9" y2="45.17"/>
<path class="st1" d="M4.62,54.23"/>
<rect x="27.66" y="41.93" class="st0" width="1.24" height="4.11"/>
<polyline class="st0" points="15.02,44.73 15.02,43.11 15.02,42.27 15.02,37.41 "/>
<rect x="49.1" y="41.57" class="st0" width="1.24" height="4.45"/>
<polyline class="st0" points="63.26,44.73 63.26,43.11 63.26,42.27 63.26,37.41 "/>
<path class="st2" d="M69.03,37.03H8.42l0-1.75l0,0c1.45,0.27,3.12,0.22,4.46-0.13c1.11-0.29,2.27-0.65,3.27-1.07
	c0.97-0.4,1.78-0.97,2.4-1.63l0.39-0.05h39.17l1.54,0.85c1.74,0.88,3.58,1.56,5.87,2.05c1.15,0.24,2.37,0.23,3.52-0.01l0,0V37.03z"
	/>
<path class="st2" d="M64.32,28.59H12.98l0-2.55h0c1.22,0.39,2.64,0.33,3.77-0.19c0.94-0.43,1.92-0.96,2.77-1.56
	c0.82-0.59,1.51-1.41,2.04-2.39l0.33-0.07h33.18l1.3,1.24c1.48,1.28,3.03,2.28,4.97,2.99c0.97,0.35,2.01,0.33,2.98-0.02l0,0V28.59z"
	/>
<line class="st0" x1="8.22" y1="37.41" x2="68.83" y2="37.41"/>
<line class="st0" x1="12.98" y1="28.93" x2="64.51" y2="28.93"/>
<line class="st0" x1="21.6" y1="21.27" x2="55.14" y2="21.27"/>
<line class="st0" x1="69.03" y1="34.91" x2="69.03" y2="33.73"/>
<line class="st0" x1="64.13" y1="25.84" x2="64.13" y2="24.66"/>
<line class="st0" x1="8.43" y1="34.91" x2="8.43" y2="33.73"/>
<line class="st0" x1="13.17" y1="25.84" x2="13.17" y2="24.66"/>
<line class="st0" x1="15.02" y1="43.45" x2="27.8" y2="43.45"/>
<line class="st0" x1="50.48" y1="43.45" x2="63.26" y2="43.45"/>
<rect x="20.66" y="30.7" class="st0" width="34.85" height="0.88"/>
<line class="st0" x1="20.66" y1="28.93" x2="20.66" y2="30.7"/>
<line class="st0" x1="55.51" y1="28.93" x2="55.51" y2="30.7"/>
<line class="st0" x1="27.03" y1="28.93" x2="27.03" y2="30.7"/>
<line class="st0" x1="28.16" y1="28.93" x2="28.16" y2="30.7"/>
<line class="st0" x1="37.53" y1="28.93" x2="37.53" y2="30.7"/>
<line class="st0" x1="38.65" y1="28.93" x2="38.65" y2="30.7"/>
<line class="st0" x1="48.02" y1="28.93" x2="48.02" y2="30.7"/>
<line class="st0" x1="49.14" y1="28.93" x2="49.14" y2="30.7"/>
<path class="st2" d="M55.7,42.89H22.3l0.32-0.26c0.02-0.02,0.05-0.04,0.07-0.06c1.43-1.2,2.33-2.59,2.58-4.05l0.02-0.1H52.5l0,0.04
	c0.26,1.49,1.22,2.91,2.77,4.12c0.03,0.02,0.06,0.05,0.09,0.07L55.7,42.89z"/>
<path class="st0" d="M28.16,40.38c0,0,10.77,1.17,21.56,0"/>
<path class="st3" d="M66.41,48.81v5.3l-1.11,0.15l-10.98,1.45c-3.3,0.44-6.63,0.73-9.96,0.89v-2.34h-0.02c0-1.95-2.4-3.53-5.35-3.53
	c-2.95,0-5.35,1.58-5.35,3.53h-0.01v2.35c-3.61-0.15-7.21-0.48-10.77-0.96l-10.21-1.39l-1.08-0.15v-5.3h1.75v0.74h2.47v-0.74h2.06
	v0.74h2.47v-0.74h2.06v0.74h2.47v-0.74h28.45v0.74h2.47v-0.74h2.06v0.74h2.47v-0.74h2.06v0.74h2.47v-0.74H66.41z"/>
<g>
	<line class="st0" x1="29.67" y1="51.02" x2="29.67" y2="54.82"/>
	<line class="st0" x1="25.86" y1="51.02" x2="25.86" y2="54.06"/>
	<line class="st0" x1="21.29" y1="51.02" x2="21.29" y2="53.3"/>
	<line class="st0" x1="17.48" y1="51.02" x2="17.48" y2="52.54"/>
	<line class="st0" x1="14.82" y1="51.02" x2="14.82" y2="52.16"/>
</g>
<g>
	<line class="st0" x1="49.09" y1="51.21" x2="49.09" y2="55.01"/>
	<line class="st0" x1="52.89" y1="51.21" x2="52.89" y2="54.25"/>
	<line class="st0" x1="57.46" y1="51.21" x2="57.46" y2="53.49"/>
	<line class="st0" x1="61.27" y1="51.21" x2="61.27" y2="52.73"/>
	<line class="st0" x1="63.94" y1="51.21" x2="63.94" y2="52.35"/>
</g>
</svg>
