<?xml version="1.0" encoding="utf-8"?>
<!-- Generator: Adobe Illustrator 27.7.0, SVG Export Plug-In . SVG Version: 6.00 Build 0)  -->
<svg version="1.1" id="레이어_1" xmlns="http://www.w3.org/2000/svg" xmlns:xlink="http://www.w3.org/1999/xlink" x="0px"
	 y="0px" viewBox="0 0 78 78" style="enable-background:new 0 0 78 78;" xml:space="preserve">
<style type="text/css">
	.st0{fill:none;stroke:#000000;stroke-width:0.5;stroke-miterlimit:10;}
	.st1{fill:#00D9BF;}
</style>
<line class="st0" x1="5.02" y1="54.06" x2="5.02" y2="53.93"/>
<path class="st0" d="M5.02,54.06"/>
<path class="st1" d="M34.76,30.4v7.22h7.97V30.4H34.76z M61.79,61.3c-2.52-11.49-8.34-18.93-8.34-18.93v-29.4h-28.4v29.4
	c0,0-1.26,1.61-2.86,4.48c-2.67,4.8-6.29,13.13-6.61,23.42h47.34C62.82,67.07,62.4,64.07,61.79,61.3z M44.98,30.4h-0.75v7.22h0.5
	v2.99H32.77v-2.99h0.5V30.4h-0.75v-2.99h12.46V30.4z M42.74,30.4h-7.97v7.22h7.97V30.4z"/>
<rect x="22.06" y="5.49" class="st0" width="34.38" height="5.98"/>
<rect x="12.59" y="70.27" class="st0" width="52.82" height="5.48"/>
<rect x="25.8" y="2.25" class="st0" width="1.99" height="3.24"/>
<rect x="50.21" y="2.25" class="st0" width="1.99" height="3.24"/>
<rect x="32.52" y="27.42" class="st0" width="12.46" height="2.99"/>
<line class="st0" x1="25.3" y1="16.95" x2="53.2" y2="16.95"/>
<line class="st0" x1="25.3" y1="20.94" x2="53.2" y2="20.94"/>
<line class="st0" x1="25.3" y1="42.11" x2="53.2" y2="42.11"/>
<line class="st0" x1="25.3" y1="24.67" x2="53.2" y2="24.67"/>
<line class="st0" x1="22.81" y1="46.85" x2="55.69" y2="46.85"/>
<line class="st0" x1="20.32" y1="51.33" x2="58.18" y2="51.33"/>
<line class="st0" x1="18.32" y1="56.31" x2="60.18" y2="56.31"/>
<line class="st0" x1="17.33" y1="61.3" x2="61.17" y2="61.3"/>
<line class="st0" x1="16.33" y1="66.28" x2="62.17" y2="66.28"/>
<line class="st0" x1="25.3" y1="28.91" x2="32.27" y2="28.91"/>
<line class="st0" x1="25.3" y1="32.9" x2="33.02" y2="32.9"/>
<line class="st0" x1="25.3" y1="37.38" x2="33.02" y2="37.38"/>
<line class="st0" x1="45.23" y1="28.91" x2="53.2" y2="28.91"/>
<line class="st0" x1="44.48" y1="32.9" x2="53.2" y2="32.9"/>
<line class="st0" x1="44.48" y1="37.38" x2="53.2" y2="37.38"/>
<line class="st0" x1="31.53" y1="12.97" x2="31.53" y2="16.95"/>
<line class="st0" x1="40" y1="12.97" x2="40" y2="16.95"/>
<line class="st0" x1="48.47" y1="12.97" x2="48.47" y2="16.95"/>
<line class="st0" x1="44.48" y1="16.95" x2="44.48" y2="20.94"/>
<line class="st0" x1="35.51" y1="16.95" x2="35.51" y2="20.94"/>
<line class="st0" x1="27.04" y1="16.95" x2="27.04" y2="20.94"/>
<line class="st0" x1="30.53" y1="20.94" x2="30.53" y2="24.92"/>
<line class="st0" x1="39" y1="20.94" x2="39" y2="24.92"/>
<line class="st0" x1="47.47" y1="20.94" x2="47.47" y2="24.92"/>
<line class="st0" x1="49.96" y1="24.92" x2="49.96" y2="28.91"/>
<line class="st0" x1="42.49" y1="24.92" x2="42.49" y2="27.17"/>
<line class="st0" x1="34.02" y1="24.92" x2="34.02" y2="27.42"/>
<line class="st0" x1="28.54" y1="29.16" x2="28.54" y2="32.9"/>
<line class="st0" x1="31.03" y1="32.9" x2="31.03" y2="37.38"/>
<line class="st0" x1="28.54" y1="37.63" x2="28.54" y2="42.36"/>
<line class="st0" x1="47.97" y1="28.91" x2="47.97" y2="32.9"/>
<line class="st0" x1="50.46" y1="32.9" x2="50.46" y2="37.63"/>
<line class="st0" x1="47.97" y1="37.38" x2="47.97" y2="42.36"/>
<line class="st0" x1="40.99" y1="42.36" x2="40.99" y2="46.85"/>
<line class="st0" x1="32.02" y1="42.36" x2="32.02" y2="46.85"/>
<line class="st0" x1="49.96" y1="42.36" x2="49.96" y2="46.85"/>
<line class="st0" x1="27.04" y1="46.85" x2="27.04" y2="51.33"/>
<line class="st0" x1="37.51" y1="46.85" x2="37.51" y2="51.33"/>
<line class="st0" x1="47.47" y1="46.85" x2="47.47" y2="51.58"/>
<line class="st0" x1="53.45" y1="51.33" x2="53.45" y2="56.31"/>
<line class="st0" x1="42.99" y1="51.33" x2="42.99" y2="56.31"/>
<line class="st0" x1="31.53" y1="51.58" x2="31.53" y2="56.31"/>
<line class="st0" x1="22.06" y1="51.58" x2="22.06" y2="56.31"/>
<line class="st0" x1="26.54" y1="56.31" x2="26.54" y2="61.3"/>
<line class="st0" x1="37.26" y1="56.07" x2="37.26" y2="61.3"/>
<line class="st0" x1="48.47" y1="56.56" x2="48.47" y2="61.55"/>
<line class="st0" x1="55.94" y1="61.05" x2="55.94" y2="66.28"/>
<line class="st0" x1="44.48" y1="61.55" x2="44.48" y2="66.28"/>
<line class="st0" x1="33.02" y1="61.3" x2="33.02" y2="66.28"/>
<line class="st0" x1="21.06" y1="61.3" x2="21.06" y2="66.28"/>
<line class="st0" x1="26.05" y1="66.28" x2="26.05" y2="70.52"/>
<line class="st0" x1="37.01" y1="66.28" x2="37.01" y2="70.52"/>
<line class="st0" x1="47.97" y1="66.28" x2="47.97" y2="70.52"/>
<line class="st0" x1="58.93" y1="66.28" x2="58.93" y2="70.52"/>
<rect x="32.77" y="37.63" class="st0" width="11.96" height="2.99"/>
<line class="st0" x1="33.27" y1="30.65" x2="33.27" y2="37.63"/>
<line class="st0" x1="44.23" y1="30.65" x2="44.23" y2="37.63"/>
<line class="st0" x1="35.26" y1="31.15" x2="35.26" y2="36.63"/>
<line class="st0" x1="42.24" y1="31.15" x2="42.24" y2="36.63"/>
<line class="st0" x1="25.3" y1="12.72" x2="53.2" y2="12.72"/>
</svg>
