<?xml version="1.0" encoding="utf-8"?>
<!-- Generator: Adobe Illustrator 27.7.0, SVG Export Plug-In . SVG Version: 6.00 Build 0)  -->
<svg version="1.1" id="레이어_1" xmlns="http://www.w3.org/2000/svg" xmlns:xlink="http://www.w3.org/1999/xlink" x="0px"
	 y="0px" viewBox="0 0 78 78" style="enable-background:new 0 0 78 78;" xml:space="preserve">
<style type="text/css">
	.st0{fill:#00D9BF;}
	.st1{fill:none;stroke:#000000;stroke-width:0.5;stroke-linecap:square;stroke-linejoin:round;stroke-miterlimit:10;}
	.st2{fill:none;stroke:#000000;stroke-linecap:square;stroke-linejoin:round;stroke-miterlimit:10;}
</style>
<path class="st0" d="M73.68,40.23c-0.12,0.03-0.25,0.06-0.38,0.09c-1.12,0.25-2.45,0.48-3.96,0.68c-0.23,0.03-0.45,0.06-0.69,0.09
	c-0.41,0.05-0.84,0.1-1.28,0.15c-2.01,0.23-4.26,0.42-6.7,0.57c-3.78,0.23-8.01,0.36-12.48,0.36c-6.36,0-12.24-0.27-17.03-0.71
	c-3.74-0.35-6.8-0.81-8.91-1.35c-0.36-0.09-0.69-0.18-0.99-0.28c-1.39-0.44-2.15-0.92-2.15-1.42c0-0.13,0.05-0.25,0.14-0.38
	c0.02-0.02,0.04-0.04,0.05-0.06c0.02-0.02,0.03-0.03,0.04-0.05c0-0.01,0.01-0.01,0.01-0.01c0.01-0.01,0.02-0.02,0.03-0.03
	c0.86-0.81,3.71-1.54,7.88-2.1c-0.01,0.02-0.02,0.04-0.02,0.06c-0.02,0.06-0.02,0.1,0,0.13c0,0.01,0,0.02,0,0.02
	c0,0.03,0,0.07,0.01,0.1c0,0.02,0.01,0.04,0.01,0.06c0.01,0.03,0.02,0.05,0.03,0.08c0.01,0.02,0.02,0.05,0.03,0.07
	c0.01,0.03,0.03,0.06,0.05,0.08c0.02,0.02,0.03,0.05,0.05,0.07c0.03,0.05,0.07,0.09,0.11,0.13c0.02,0.02,0.04,0.05,0.07,0.06
	c0.05,0.05,0.1,0.08,0.15,0.12c0.03,0.03,0.07,0.05,0.11,0.08c0.19,0.13,0.43,0.26,0.71,0.38c0.06,0.02,0.11,0.05,0.17,0.08
	c0.08,0.03,0.16,0.07,0.24,0.1c0.08,0.03,0.16,0.06,0.24,0.09c0.08,0.03,0.17,0.06,0.26,0.09c0.36,0.12,0.76,0.24,1.2,0.35
	c0.22,0.06,0.45,0.11,0.68,0.17c0.24,0.05,0.48,0.11,0.74,0.16c0.13,0.03,0.26,0.05,0.39,0.08c0.13,0.03,0.27,0.05,0.4,0.08
	c0.14,0.03,0.27,0.05,0.41,0.08c0.28,0.05,0.57,0.1,0.86,0.14c0.14,0.02,0.3,0.05,0.45,0.07c0.15,0.02,0.31,0.05,0.46,0.07
	c0.16,0.02,0.31,0.05,0.47,0.07c0.13,0.02,0.27,0.04,0.4,0.05c0.14,0.02,0.27,0.03,0.41,0.05c0.14,0.02,0.28,0.04,0.42,0.05
	c0.22,0.03,0.44,0.05,0.66,0.08c0.07,0.01,0.13,0.02,0.2,0.02c0.14,0.02,0.29,0.03,0.44,0.05c1.89,0.2,3.97,0.35,6.19,0.46
	c0.55,0.03,1.11,0.05,1.68,0.07c0.02,0,0.04,0,0.06,0c0.29,0.01,0.57,0.02,0.86,0.03c0.18,0.01,0.36,0.01,0.54,0.02
	c0.24,0.01,0.47,0.01,0.71,0.02c0.49,0.01,1,0.02,1.5,0.02c0.41,0.01,0.82,0.01,1.24,0.01c0.21,0,0.42,0,0.63,0
	c0.53,0,1.05,0,1.58-0.01c0.17,0,0.35,0,0.52-0.01c0.19,0,0.38,0,0.57-0.01c0.27-0.01,0.54-0.01,0.81-0.02
	c0.39-0.01,0.78-0.02,1.17-0.03c0.67-0.02,1.33-0.05,1.97-0.07c0.49-0.02,0.96-0.05,1.44-0.07c0.16-0.01,0.31-0.02,0.47-0.03
	c1.52-0.09,2.97-0.2,4.33-0.33c0.18-0.02,0.35-0.04,0.53-0.05c0.14-0.02,0.29-0.03,0.43-0.05c0.15-0.02,0.3-0.03,0.45-0.05
	c0.15-0.02,0.3-0.03,0.44-0.05c0.39-0.05,0.76-0.09,1.13-0.14c0.4-0.05,0.78-0.11,1.16-0.16c0.14-0.02,0.28-0.05,0.42-0.07
	c0.11-0.02,0.21-0.03,0.31-0.05c0.2-0.03,0.39-0.06,0.58-0.1c0.19-0.03,0.37-0.07,0.55-0.1c0.11-0.02,0.21-0.04,0.31-0.06
	c0.03-0.01,0.06-0.01,0.08-0.02c0.15-0.03,0.3-0.06,0.44-0.09c0.1-0.02,0.19-0.04,0.28-0.06c0.17-0.04,0.34-0.08,0.51-0.12
	c0.19-0.05,0.37-0.09,0.54-0.14c0.08-0.02,0.16-0.04,0.24-0.07c0.05-0.02,0.11-0.03,0.16-0.05C73.19,38.59,73.44,39.42,73.68,40.23z
	"/>
<path class="st0" d="M75.42,46.41c-0.41,0.11-0.87,0.22-1.37,0.33c-0.15,0.03-0.31,0.06-0.47,0.09c-0.02,0.01-0.05,0.01-0.08,0.02
	c-0.18,0.03-0.36,0.07-0.54,0.1c-0.11,0.02-0.22,0.04-0.33,0.06c-0.18,0.03-0.37,0.06-0.56,0.09c-0.49,0.08-1.01,0.16-1.55,0.23
	c-0.14,0.02-0.28,0.04-0.42,0.06c-0.21,0.03-0.43,0.06-0.65,0.08c-0.03,0-0.06,0.01-0.09,0.01c-0.2,0.02-0.4,0.05-0.61,0.07
	c-0.03,0.01-0.07,0.01-0.1,0.01c-0.17,0.02-0.35,0.04-0.53,0.06c-0.85,0.1-1.75,0.19-2.69,0.27c-0.14,0.01-0.28,0.02-0.42,0.04
	c-0.14,0.01-0.28,0.02-0.42,0.04c-6.09,0.52-13.83,0.83-22.26,0.83c-8.82,0-16.88-0.34-23.1-0.9c-0.61-0.05-1.21-0.11-1.79-0.17
	c-1.55-0.16-2.96-0.33-4.21-0.52c-4.06-0.61-6.45-1.36-6.45-2.16c0-0.15,0.09-0.3,0.26-0.45c0.01-0.01,0.01-0.01,0.01-0.01
	c0.01-0.02,0.03-0.03,0.05-0.04c1.01-0.8,4.36-1.52,9.29-2.08c0.59,2.02,14.17,3.63,30.84,3.63c1.67,0,3.31-0.02,4.9-0.05
	c0.21,0,0.43-0.01,0.64-0.01c0.69-0.02,1.37-0.03,2.04-0.05c0.19-0.01,0.37-0.01,0.56-0.02c0.14,0,0.29-0.01,0.43-0.02
	c0.23-0.01,0.45-0.02,0.67-0.02c0.02,0,0.04,0,0.06,0c0.24-0.01,0.49-0.02,0.73-0.03c0.82-0.03,1.62-0.07,2.41-0.11
	c0.35-0.02,0.69-0.04,1.03-0.06c1.02-0.06,2-0.13,2.96-0.2c0.16-0.01,0.32-0.02,0.47-0.04c0.4-0.03,0.8-0.07,1.19-0.1
	c0.07-0.01,0.13-0.01,0.2-0.02c0.45-0.04,0.89-0.08,1.33-0.13c0.43-0.05,0.85-0.09,1.27-0.14c0.41-0.04,0.8-0.09,1.19-0.14
	c0,0,0.01,0,0.01,0c0.26-0.03,0.52-0.07,0.77-0.1c0.42-0.06,0.82-0.11,1.21-0.17c0.24-0.03,0.47-0.07,0.69-0.11
	c0.59-0.1,1.14-0.2,1.65-0.3c0.1-0.02,0.2-0.04,0.3-0.06c0.1-0.02,0.2-0.04,0.29-0.06c0.1-0.02,0.19-0.04,0.28-0.06
	c0.09-0.02,0.18-0.05,0.27-0.07C75.02,44.88,75.24,45.69,75.42,46.41z"/>
<g>
	<path class="st0" d="M72.11,34.47c-0.02,0.01-0.05,0.01-0.08,0.02c-0.12,0.03-0.24,0.06-0.36,0.08c-0.22,0.05-0.44,0.1-0.67,0.15
		c-0.17,0.03-0.34,0.07-0.51,0.1c-0.14,0.03-0.28,0.05-0.42,0.08c-0.14,0.03-0.29,0.05-0.43,0.08c-0.42,0.07-0.86,0.14-1.31,0.21
		c-0.04,0.01-0.07,0.01-0.11,0.02c-0.14,0.02-0.29,0.04-0.44,0.06c-0.16,0.02-0.33,0.05-0.49,0.07c-0.17,0.02-0.34,0.04-0.51,0.06
		c-0.17,0.02-0.34,0.04-0.51,0.06c-0.21,0.02-0.42,0.05-0.64,0.07c-0.1,0.01-0.2,0.02-0.3,0.03c-0.17,0.02-0.34,0.04-0.51,0.05
		c-0.07,0.01-0.14,0.01-0.21,0.02c-0.43,0.04-0.87,0.08-1.32,0.12c-0.22,0.02-0.45,0.04-0.68,0.05c-0.23,0.02-0.46,0.03-0.69,0.05
		c-0.23,0.02-0.47,0.03-0.7,0.05c-0.95,0.06-1.93,0.11-2.94,0.15c-0.29,0.01-0.59,0.02-0.88,0.03c-0.3,0.01-0.6,0.02-0.9,0.03
		c-1.2,0.03-2.43,0.05-3.69,0.05c-6.58,0-12.52-0.45-16.73-1.16c-1.79-0.3-3.28-0.66-4.36-1.05c-0.07-0.02-0.13-0.05-0.19-0.07
		c-1.19-0.45-1.86-1.06-1.86-1.58c0-0.08-0.04-0.34,0-0.4c0.8-1.2,3.22-1.64,7.55-2.28c0.01,0,0.02,0,0.03,0
		c-0.03,0.03-0.05,0.05-0.07,0.08c0,0-0.01,0.01-0.01,0.01c-0.05,0.06-0.09,0.12-0.13,0.18c-0.02,0.03-0.03,0.06-0.05,0.09
		c0,0,0,0,0,0c-0.02,0.03-0.02,0.06-0.03,0.09c-0.01,0.02-0.01,0.03-0.01,0.05c-0.01,0.02-0.01,0.05-0.02,0.08c0,0.01,0,0.02,0,0.04
		c0,0.02,0,0.04,0,0.05c0,2.08,8.73,3.77,19.51,3.77c0.42,0,0.84,0,1.25-0.01c0.21,0,0.43,0,0.64-0.01
		c0.62-0.01,1.24-0.03,1.84-0.05c0.21-0.01,0.41-0.02,0.62-0.02c0.15-0.01,0.29-0.01,0.43-0.02c0.26-0.01,0.51-0.02,0.76-0.04
		c0.57-0.03,1.13-0.07,1.68-0.11c1.75-0.14,3.36-0.32,4.82-0.54c0.16-0.02,0.32-0.05,0.48-0.08c0.03-0.01,0.07-0.01,0.1-0.02
		c0.12-0.02,0.25-0.04,0.37-0.06c0.07-0.01,0.14-0.02,0.21-0.04c0.23-0.04,0.46-0.08,0.69-0.13c0.43-0.08,0.84-0.17,1.23-0.27
		C71.73,33.24,71.92,33.85,72.11,34.47z"/>
</g>
<path class="st0" d="M70.51,29.83c-0.13,0.03-0.25,0.06-0.38,0.08c-2.21,0.45-4.98,0.8-8.09,0.97c-1.58,0.09-3.24,0.14-4.95,0.14
	c-6.84,0-12.8-0.77-15.97-1.9c-0.11-0.04-0.22-0.08-0.33-0.12c-0.11-0.04-0.21-0.08-0.3-0.13c-0.11-0.05-0.22-0.1-0.32-0.15
	c-0.08-0.04-0.15-0.07-0.22-0.11c-0.06-0.03-0.12-0.06-0.17-0.1c-0.08-0.05-0.16-0.09-0.24-0.14c-0.54-0.36-0.83-0.73-0.83-1.12
	c0-0.1,0.02-0.2,0.06-0.3c0.01-0.02,0.02-0.04,0.02-0.06c0.88-1.91,8.73-3.41,18.29-3.41c0.39,0,0.77,0,1.14,0.01
	c0.11,0,0.23,0,0.34,0h0.02C60.45,23.6,68.77,24.31,70.51,29.83z"/>
<path class="st1" d="M74.78,44.02c-0.09,0.02-0.18,0.04-0.27,0.07c-0.09,0.02-0.19,0.04-0.28,0.06c-0.1,0.02-0.19,0.04-0.29,0.06
	c-0.1,0.02-0.2,0.04-0.3,0.06c-0.51,0.1-1.06,0.2-1.65,0.3c-0.22,0.04-0.45,0.08-0.69,0.11c-0.39,0.06-0.79,0.12-1.21,0.17
	c-0.25,0.03-0.51,0.07-0.77,0.1c0,0-0.01,0-0.01,0c-0.39,0.05-0.79,0.1-1.19,0.14c-0.41,0.05-0.83,0.09-1.27,0.14
	c-0.43,0.04-0.87,0.08-1.33,0.13c-0.06,0.01-0.13,0.01-0.2,0.02c-0.39,0.03-0.79,0.07-1.19,0.1c-0.16,0.01-0.31,0.02-0.47,0.04
	c-0.95,0.08-1.94,0.14-2.96,0.2c-0.34,0.02-0.68,0.04-1.03,0.06c-0.78,0.04-1.59,0.08-2.41,0.11c-0.24,0.01-0.49,0.02-0.73,0.03
	c-0.02,0-0.04,0-0.06,0c-0.22,0.01-0.45,0.02-0.67,0.02c-0.14,0.01-0.29,0.01-0.43,0.02c-0.18,0.01-0.37,0.01-0.56,0.02
	c-0.67,0.02-1.35,0.04-2.04,0.05c-0.21,0-0.42,0.01-0.64,0.01c-1.6,0.03-3.23,0.05-4.9,0.05c-16.67,0-30.25-1.61-30.84-3.63
	c-0.02-0.05-0.02-0.09-0.02-0.14c0-0.03,0-0.07,0.01-0.1c-0.01-0.02-0.01-0.03-0.01-0.05c-0.03-0.79,2.31-3.49,2.9-4.14
	c-0.1,0.12-0.14,0.25-0.14,0.38c0,0.5,0.76,0.99,2.15,1.42c0.3,0.1,0.63,0.19,0.99,0.28c2.11,0.54,5.17,1,8.91,1.35
	c4.78,0.45,10.67,0.71,17.03,0.71c4.47,0,8.7-0.13,12.48-0.36c2.44-0.15,4.69-0.35,6.7-0.57c0.44-0.05,0.87-0.1,1.28-0.15
	c0.23-0.03,0.46-0.06,0.69-0.09c1.51-0.21,2.84-0.44,3.96-0.68c0.15,0.03,0.29,0.06,0.43,0.09C74.11,41.67,74.46,42.89,74.78,44.02z
	"/>
<path class="st2" d="M38.7,27.26"/>
<path class="st1" d="M72.94,37.76c-0.05,0.02-0.1,0.03-0.16,0.05c-0.08,0.02-0.16,0.05-0.24,0.07c-0.17,0.05-0.36,0.09-0.54,0.14
	c-0.17,0.04-0.33,0.08-0.51,0.12c-0.09,0.02-0.19,0.04-0.28,0.06c-0.14,0.03-0.29,0.06-0.44,0.09c-0.03,0-0.05,0.01-0.08,0.02
	c-0.1,0.02-0.21,0.04-0.31,0.06c-0.18,0.04-0.36,0.07-0.55,0.1c-0.19,0.04-0.38,0.07-0.58,0.1c-0.1,0.02-0.21,0.04-0.31,0.05
	c-0.14,0.02-0.28,0.05-0.42,0.07c-0.37,0.05-0.76,0.11-1.16,0.16c-0.37,0.05-0.74,0.1-1.13,0.14c-0.15,0.02-0.29,0.04-0.44,0.05
	c-0.15,0.02-0.3,0.04-0.45,0.05c-0.14,0.02-0.28,0.03-0.43,0.05c-0.17,0.02-0.35,0.04-0.53,0.05c-1.36,0.13-2.81,0.24-4.33,0.33
	c-0.16,0.01-0.31,0.02-0.47,0.03c-0.47,0.03-0.95,0.05-1.44,0.07c-0.64,0.03-1.3,0.05-1.97,0.07c-0.39,0.01-0.77,0.02-1.17,0.03
	c-0.27,0.01-0.54,0.01-0.81,0.02c-0.19,0-0.38,0.01-0.57,0.01c-0.17,0-0.34,0.01-0.52,0.01c-0.52,0.01-1.05,0.01-1.58,0.01
	c-0.21,0-0.42,0-0.63,0c-0.42,0-0.83,0-1.24-0.01c-0.51-0.01-1.01-0.01-1.5-0.02c-0.24-0.01-0.47-0.01-0.71-0.02
	c-0.18,0-0.36-0.01-0.54-0.02c-0.29-0.01-0.58-0.02-0.86-0.03c-0.02,0-0.04,0-0.06,0c-0.57-0.02-1.13-0.04-1.68-0.07
	c-2.21-0.11-4.3-0.26-6.19-0.46c-0.15-0.02-0.3-0.03-0.44-0.05c-0.07-0.01-0.13-0.01-0.2-0.02c-0.22-0.02-0.44-0.05-0.66-0.08
	c-0.14-0.02-0.28-0.03-0.42-0.05c-0.14-0.02-0.27-0.03-0.41-0.05c-0.14-0.02-0.27-0.04-0.4-0.05c-0.16-0.02-0.32-0.04-0.47-0.07
	c-0.15-0.02-0.31-0.04-0.46-0.07c-0.15-0.02-0.3-0.05-0.45-0.07c-0.3-0.05-0.58-0.09-0.86-0.14c-0.14-0.02-0.28-0.05-0.41-0.08
	c-0.14-0.02-0.27-0.05-0.4-0.08c-0.13-0.02-0.26-0.05-0.39-0.08c-0.26-0.05-0.5-0.11-0.74-0.16c-0.24-0.05-0.46-0.11-0.68-0.17
	c-0.44-0.11-0.84-0.23-1.2-0.35c-0.09-0.03-0.18-0.06-0.26-0.09c-0.08-0.03-0.16-0.06-0.24-0.09c-0.08-0.03-0.16-0.06-0.24-0.1
	c-0.06-0.02-0.12-0.05-0.17-0.08c-0.28-0.12-0.52-0.25-0.71-0.38c-0.04-0.02-0.07-0.05-0.11-0.08c-0.05-0.04-0.11-0.08-0.15-0.12
	c-0.02-0.02-0.05-0.04-0.07-0.06c-0.05-0.04-0.08-0.08-0.11-0.13c-0.02-0.02-0.04-0.05-0.05-0.07c-0.02-0.03-0.04-0.06-0.05-0.08
	c-0.02-0.02-0.02-0.05-0.03-0.07c-0.01-0.03-0.02-0.05-0.03-0.08c-0.01-0.02-0.01-0.04-0.01-0.06c-0.01-0.03-0.01-0.06-0.01-0.1
	c0-0.01,0-0.02,0-0.02c-0.02-0.03-0.02-0.07,0-0.13c0.01-0.02,0.01-0.04,0.02-0.06c0.36-0.96,2.39-3.63,2.39-3.63
	c0.01,0,0.02,0,0.04,0c-0.03,0.07-0.04,0.14-0.04,0.22c0,0.52,0.66,1.03,1.85,1.48c0.06,0.02,0.13,0.05,0.19,0.07
	c1.08,0.39,2.55,0.74,4.34,1.05c4.2,0.71,10.11,1.16,16.66,1.16c1.25,0,2.48-0.02,3.68-0.05c0.3-0.01,0.6-0.02,0.89-0.03
	c0.3-0.01,0.59-0.02,0.88-0.03c1-0.04,1.98-0.09,2.93-0.15c0.24-0.02,0.47-0.03,0.7-0.05c0.23-0.02,0.46-0.03,0.69-0.05
	c0.23-0.02,0.45-0.04,0.68-0.05c0.45-0.04,0.89-0.08,1.32-0.12c0.07-0.01,0.14-0.01,0.21-0.02c0.17-0.02,0.34-0.03,0.51-0.05
	c0.1-0.01,0.2-0.02,0.3-0.03c0.21-0.02,0.42-0.05,0.63-0.07c0.17-0.02,0.34-0.04,0.51-0.06c0.17-0.02,0.34-0.04,0.5-0.06
	c0.17-0.02,0.33-0.04,0.49-0.07c0.15-0.02,0.29-0.04,0.43-0.06c0.04-0.01,0.07-0.01,0.11-0.02c0.45-0.07,0.89-0.14,1.3-0.21
	c0.14-0.03,0.29-0.05,0.43-0.08c0.14-0.02,0.28-0.05,0.42-0.08c0.17-0.03,0.34-0.07,0.51-0.1c0.23-0.05,0.45-0.1,0.67-0.15
	c0.12-0.03,0.24-0.06,0.36-0.08c0.03-0.01,0.05-0.01,0.08-0.02C72.27,35.54,72.61,36.65,72.94,37.76z"/>
<path class="st1" d="M76.06,49.71c0,2.04-2.68,2.81-2.84,2.86c-0.01,0-0.01,0-0.01,0c-6.45,1.17-18.95,1.96-33.31,1.96
	c-20.96,0-37.96-1.69-37.96-3.77c0-0.04,0.01-0.07,0.02-0.11c-0.01-0.01-0.01-0.03-0.02-0.04c-0.24-1.2,3.11-4.3,4.51-5.53
	c0.32-0.28,0.53-0.46,0.58-0.5c-0.17,0.15-0.26,0.3-0.26,0.45c0,0.8,2.39,1.55,6.45,2.16c1.25,0.19,2.66,0.36,4.21,0.52
	c0.58,0.06,1.18,0.12,1.79,0.17c6.21,0.56,14.28,0.9,23.1,0.9c8.43,0,16.17-0.31,22.26-0.83c0.14-0.01,0.28-0.02,0.42-0.04
	c0.14-0.01,0.28-0.02,0.42-0.04c0.94-0.08,1.84-0.17,2.69-0.27c0.18-0.02,0.36-0.04,0.53-0.06c0.04,0,0.07-0.01,0.1-0.01
	c0.21-0.02,0.41-0.05,0.61-0.07c0.03-0.01,0.06-0.01,0.09-0.01c0.22-0.03,0.44-0.06,0.65-0.08c0.14-0.02,0.29-0.04,0.42-0.06
	c0.55-0.08,1.06-0.15,1.55-0.23c0.19-0.03,0.38-0.06,0.56-0.09c0.11-0.02,0.22-0.04,0.33-0.06c0.18-0.03,0.36-0.07,0.54-0.1
	c0.02,0,0.05-0.01,0.08-0.02c0.16-0.03,0.32-0.06,0.47-0.09c0.5-0.11,0.96-0.21,1.37-0.33C75.82,47.98,76.06,49.16,76.06,49.71z"/>
<path class="st1" d="M71.38,32.66c-0.39,0.09-0.8,0.18-1.23,0.27c-0.22,0.04-0.45,0.09-0.68,0.13c-0.07,0.01-0.14,0.02-0.2,0.04
	c-0.12,0.02-0.24,0.04-0.37,0.06c-0.03,0-0.06,0.01-0.1,0.02c-0.16,0.02-0.31,0.05-0.48,0.08c-1.45,0.22-3.06,0.4-4.8,0.54
	c-0.55,0.04-1.11,0.08-1.68,0.11c-0.25,0.02-0.5,0.03-0.76,0.04c-0.14,0.01-0.29,0.02-0.43,0.02c-0.2,0.01-0.41,0.02-0.61,0.02
	c-0.6,0.02-1.21,0.04-1.83,0.05c-0.21,0.01-0.42,0.01-0.64,0.01c-0.41,0.01-0.83,0.01-1.25,0.01c-10.73,0-19.43-1.69-19.43-3.77
	c0-0.02,0-0.04,0-0.05c0-0.01,0-0.02,0-0.04c0-0.02,0.01-0.05,0.02-0.08c0-0.02,0.01-0.03,0.01-0.05c0.05-0.09,0.12-0.22,0.2-0.37
	c0,0,0-0.01,0.01-0.01c0.02-0.03,0.05-0.06,0.07-0.08c-0.01,0-0.02,0-0.03,0c0.55-0.96,1.58-2.64,1.58-2.64l0,0
	c-0.04,0.1-0.06,0.2-0.06,0.3c0,0.39,0.29,0.77,0.83,1.12c0.08,0.05,0.15,0.1,0.24,0.14c0.06,0.04,0.11,0.07,0.17,0.1
	c0.07,0.04,0.14,0.08,0.22,0.11c0.1,0.05,0.21,0.1,0.32,0.15c0.1,0.04,0.2,0.08,0.3,0.13c0.11,0.04,0.21,0.08,0.33,0.12
	c3.17,1.13,9.13,1.9,15.97,1.9c1.72,0,3.38-0.05,4.95-0.14c3.11-0.17,5.88-0.52,8.09-0.97c0.13-0.03,0.26-0.05,0.38-0.08
	c0.01,0.02,0.01,0.03,0.02,0.04C70.78,30.72,71.07,31.66,71.38,32.66z"/>
<path class="st1" d="M7.89,44.09c0,0,2.34-1.04,7.57-1.52"/>
<path class="st1" d="M20.15,37.42c0,0,1.17-0.87,6.26-1.5"/>
<path class="st1" d="M30.34,31.27c0,0,1.34-1.03,5.86-1.51"/>
<path class="st1" d="M40.18,25.79c0,0,4.19-1.65,8.57-1.88"/>
<path class="st1" d="M54.61,23.53c0,0,7.93-0.58,11.63,1.78"/>
<path class="st1" d="M68.3,26.63c0,0,1.35,0.98,1.7,2.02"/>
<polyline class="st1" points="71.38,32.66 71.94,34.47 72.94,37.76 73.73,40.4 74.78,44.02 75.42,46.41 "/>
</svg>
