<svg width="334" height="96" viewBox="0 0 334 96" fill="none" xmlns="http://www.w3.org/2000/svg">
<path d="M332.144 84.1777C332.144 89.1912 327.892 93.2522 322.633 93.2522H11.379C6.12232 93.2522 1.85547 89.1912 1.85547 84.1777V11.8119C1.85547 6.8008 6.12232 2.72559 11.379 2.72559H322.631C327.892 2.72559 332.142 6.8008 332.142 11.8119L332.144 84.1777Z" fill="black"/>
<path d="M321.63 2.83465C327.357 2.83465 332.018 7.26508 332.018 12.7098V83.2673C332.018 88.712 327.357 93.1424 321.63 93.1424H12.3704C6.64289 93.1424 1.98235 88.712 1.98235 83.2673V12.7098C1.98235 7.26508 6.64289 2.83465 12.3704 2.83465H321.63ZM321.63 0.950182H12.3704C5.56976 0.950182 0 6.24493 0 12.7098V83.2673C0 89.7321 5.56976 95.0269 12.3704 95.0269H321.63C328.43 95.0269 334 89.7321 334 83.2673V12.7098C334 6.24493 328.43 0.950182 321.63 0.950182Z" fill="#A6A6A6"/>
<path d="M74.5392 47.4802C74.4675 39.9 81.0683 36.2122 81.3701 36.0405C77.6318 30.8592 71.8375 30.1513 69.8014 30.0949C64.9349 29.608 60.2143 32.8631 57.7353 32.8631C55.2068 32.8631 51.3893 30.1419 47.2749 30.2219C41.9804 30.2995 37.0273 33.2135 34.3108 37.7386C28.7045 46.9652 32.8857 60.524 38.2569 67.9819C40.9438 71.6344 44.0834 75.7126 48.1928 75.5692C52.2132 75.4116 53.7149 73.1326 58.5666 73.1326C63.3737 73.1326 64.7839 75.5692 68.975 75.4774C73.2898 75.4116 76.0063 71.8085 78.5992 68.123C81.7041 63.9366 82.9511 59.8137 83.0006 59.602C82.8991 59.5691 74.6209 56.5657 74.5392 47.4802Z" fill="white"/>
<path d="M66.6222 25.1888C68.7845 22.6181 70.264 19.1208 69.8533 15.5718C66.7236 15.7035 62.8096 17.6297 60.5558 20.1439C58.5617 22.3594 56.7803 25.9908 57.2405 29.4058C60.7562 29.6551 64.3658 27.7194 66.6222 25.1888Z" fill="white"/>
<path d="M132.726 75.0472H127.107L124.03 65.8536H113.332L110.4 75.0472H104.93L115.529 43.7479H122.075L132.726 75.0472ZM123.102 61.9964L120.318 53.8235C120.024 52.9886 119.472 51.0224 118.658 47.9273H118.559C118.235 49.2585 117.713 51.2247 116.996 53.8235L114.262 61.9964H123.102Z" fill="white"/>
<path d="M159.98 63.4838C159.98 67.3222 158.889 70.3562 156.707 72.5834C154.752 74.5661 152.325 75.5562 149.428 75.5562C146.301 75.5562 144.054 74.4885 142.686 72.3529H142.587V84.2419H137.313V59.9066C137.313 57.4935 137.246 55.0169 137.117 52.4769H141.756L142.05 56.0541H142.149C143.909 53.3588 146.578 52.0135 150.161 52.0135C152.961 52.0135 155.299 53.0649 157.17 55.1698C159.045 57.2771 159.98 60.0477 159.98 63.4838ZM154.606 63.6673C154.606 61.4706 154.087 59.6596 153.043 58.2344C151.902 56.748 150.371 56.0048 148.451 56.0048C147.15 56.0048 145.967 56.4187 144.911 57.2348C143.852 58.058 143.159 59.1328 142.835 60.464C142.671 61.0849 142.59 61.5929 142.59 61.9927V65.7558C142.59 67.3974 143.119 68.7827 144.178 69.914C145.237 71.0453 146.613 71.6097 148.305 71.6097C150.292 71.6097 151.838 70.8806 152.944 69.4271C154.052 67.9713 154.606 66.0521 154.606 63.6673Z" fill="white"/>
<path d="M187.286 63.4838C187.286 67.3222 186.195 70.3562 184.011 72.5834C182.059 74.5661 179.631 75.5562 176.734 75.5562C173.607 75.5562 171.361 74.4885 169.995 72.3529H169.896V84.2419H164.621V59.9066C164.621 57.4935 164.554 55.0169 164.426 52.4769H169.065L169.359 56.0541H169.458C171.215 53.3588 173.884 52.0135 177.469 52.0135C180.267 52.0135 182.605 53.0649 184.481 55.1698C186.349 57.2771 187.286 60.0477 187.286 63.4838ZM181.913 63.6673C181.913 61.4706 181.391 59.6596 180.346 58.2344C179.206 56.748 177.679 56.0048 175.757 56.0048C174.453 56.0048 173.273 56.4187 172.214 57.2348C171.155 58.058 170.465 59.1328 170.141 60.464C169.98 61.0849 169.896 61.5929 169.896 61.9927V65.7558C169.896 67.3974 170.425 68.7827 171.479 69.914C172.538 71.0429 173.914 71.6097 175.611 71.6097C177.598 71.6097 179.144 70.8806 180.25 69.4271C181.358 67.9713 181.913 66.0521 181.913 63.6673Z" fill="white"/>
<path d="M217.817 66.2687C217.817 68.931 216.844 71.0972 214.892 72.7694C212.747 74.5968 209.761 75.5093 205.924 75.5093C202.381 75.5093 199.541 74.8602 197.391 73.5596L198.613 69.3803C200.929 70.7114 203.469 71.3794 206.238 71.3794C208.225 71.3794 209.771 70.9513 210.882 70.0999C211.988 69.2485 212.539 68.1055 212.539 66.6803C212.539 65.4102 212.084 64.3401 211.171 63.4722C210.263 62.6044 208.747 61.7977 206.629 61.0521C200.864 59.0083 197.984 56.0143 197.984 52.0772C197.984 49.5042 198.994 47.3945 201.015 45.7529C203.029 44.1089 205.716 43.2881 209.076 43.2881C212.072 43.2881 214.561 43.7843 216.547 44.7745L215.229 48.8621C213.373 47.9025 211.275 47.4228 208.927 47.4228C207.072 47.4228 205.622 47.8579 204.583 48.7234C203.704 49.4971 203.264 50.4403 203.264 51.5574C203.264 52.7945 203.766 53.8176 204.776 54.622C205.654 55.3652 207.25 56.1695 209.566 57.0374C212.398 58.1216 214.479 59.3893 215.818 60.8428C217.151 62.2916 217.817 64.1049 217.817 66.2687Z" fill="white"/>
<path d="M235.263 56.2394H229.449V67.197C229.449 69.984 230.473 71.3763 232.527 71.3763C233.469 71.3763 234.251 71.2987 234.87 71.1435L235.016 74.9513C233.977 75.3205 232.608 75.5063 230.914 75.5063C228.831 75.5063 227.203 74.9019 226.027 73.6953C224.857 72.4864 224.268 70.4591 224.268 67.6109V56.2347H220.805V52.4716H224.268V48.3393L229.449 46.8529V52.4716H235.263V56.2394Z" fill="white"/>
<path d="M261.488 63.5762C261.488 67.0452 260.444 69.8934 258.361 72.1207C256.176 74.4138 253.277 75.5568 249.662 75.5568C246.179 75.5568 243.405 74.4585 241.337 72.2618C239.269 70.0651 238.234 67.2922 238.234 63.9501C238.234 60.4528 239.298 57.5882 241.433 55.3609C243.564 53.1313 246.438 52.0165 250.053 52.0165C253.537 52.0165 256.34 53.1148 258.455 55.3139C260.479 57.4471 261.488 60.2012 261.488 63.5762ZM256.016 63.7384C256.016 61.657 255.548 59.8719 254.6 58.3831C253.494 56.5816 251.914 55.6831 249.865 55.6831C247.745 55.6831 246.134 56.5839 245.028 58.3831C244.081 59.8742 243.613 61.6876 243.613 63.8325C243.613 65.914 244.081 67.6991 245.028 69.1855C246.169 70.987 247.762 71.8855 249.818 71.8855C251.832 71.8855 253.413 70.9682 254.553 69.1384C255.526 67.6214 256.016 65.8175 256.016 63.7384Z" fill="white"/>
<path d="M278.636 56.8866C278.114 56.7949 277.557 56.7478 276.973 56.7478C275.117 56.7478 273.682 57.4134 272.673 58.747C271.795 59.9229 271.354 61.4093 271.354 63.2038V75.0457H266.082L266.132 59.5842C266.132 56.983 266.065 54.6146 265.934 52.4791H270.528L270.721 56.7972H270.867C271.424 55.3132 272.302 54.1184 273.504 53.2223C274.679 52.4156 275.949 52.0134 277.317 52.0134C277.804 52.0134 278.245 52.0464 278.636 52.1052V56.8866Z" fill="white"/>
<path d="M302.228 62.6941C302.228 63.5925 302.166 64.3498 302.035 64.9684H286.211C286.273 67.198 287.037 68.9031 288.507 70.0791C289.84 71.1304 291.565 71.6572 293.682 71.6572C296.025 71.6572 298.163 71.3021 300.085 70.5894L300.912 74.0703C298.665 75.0016 296.013 75.465 292.952 75.465C289.271 75.465 286.381 74.4348 284.278 72.3769C282.18 70.319 281.129 67.5555 281.129 64.0887C281.129 60.6855 282.106 57.8515 284.063 55.5913C286.112 53.1782 288.88 51.9717 292.364 51.9717C295.785 51.9717 298.376 53.1782 300.135 55.5913C301.528 57.5081 302.228 59.8788 302.228 62.6941ZM297.198 61.3935C297.233 59.907 296.889 58.6229 296.174 57.5387C295.261 56.144 293.858 55.4478 291.97 55.4478C290.246 55.4478 288.843 56.1275 287.772 57.4916C286.894 58.5759 286.371 59.8765 286.211 61.3911H297.198V61.3935Z" fill="white"/>
<path d="M121.354 24.4896C121.354 27.2579 120.481 29.3417 118.737 30.741C117.121 32.0322 114.825 32.679 111.851 32.679C110.377 32.679 109.115 32.6179 108.059 32.4956V17.3704C109.437 17.1587 110.921 17.0505 112.524 17.0505C115.357 17.0505 117.492 17.6362 118.932 18.8074C120.545 20.1315 121.354 22.0248 121.354 24.4896ZM118.62 24.5579C118.62 22.7633 118.121 21.3875 117.121 20.4279C116.122 19.4707 114.662 18.9909 112.74 18.9909C111.923 18.9909 111.228 19.0426 110.651 19.1508V30.6493C110.971 30.6964 111.554 30.7175 112.403 30.7175C114.387 30.7175 115.919 30.193 116.997 29.1441C118.076 28.0951 118.62 26.5664 118.62 24.5579Z" fill="white"/>
<path d="M135.852 26.9082C135.852 28.6134 135.34 30.0104 134.316 31.1064C133.242 32.233 131.82 32.7951 130.043 32.7951C128.331 32.7951 126.968 32.2565 125.951 31.1746C124.937 30.0951 124.43 28.7333 124.43 27.0917C124.43 25.3748 124.952 23.966 126.001 22.8723C127.05 21.7787 128.46 21.2307 130.236 21.2307C131.948 21.2307 133.324 21.7693 134.366 22.8488C135.355 23.8978 135.852 25.2525 135.852 26.9082ZM133.163 26.9882C133.163 25.9651 132.931 25.0879 132.468 24.3564C131.924 23.4721 131.149 23.0299 130.142 23.0299C129.101 23.0299 128.309 23.4721 127.765 24.3564C127.3 25.0879 127.07 25.9792 127.07 27.0329C127.07 28.056 127.302 28.9332 127.765 29.6647C128.326 30.549 129.108 30.9912 130.118 30.9912C131.107 30.9912 131.884 30.5419 132.443 29.6412C132.923 28.8956 133.163 28.0113 133.163 26.9882Z" fill="white"/>
<path d="M155.289 21.4553L151.639 32.5423H149.264L147.753 27.7279C147.369 26.5261 147.057 25.3313 146.815 24.1459H146.768C146.543 25.3642 146.231 26.5566 145.83 27.7279L144.224 32.5423H141.822L138.391 21.4553H141.055L142.374 26.726C142.693 27.9725 142.955 29.1602 143.166 30.2844H143.213C143.406 29.3578 143.725 28.1771 144.175 26.7495L145.83 21.4577H147.943L149.529 26.6366C149.912 27.8996 150.224 29.1155 150.464 30.2868H150.536C150.712 29.1461 150.976 27.9302 151.328 26.6366L152.743 21.4577H155.289V21.4553Z" fill="white"/>
<path d="M168.731 32.5437H166.138V26.1935C166.138 24.2367 165.356 23.2583 163.787 23.2583C163.018 23.2583 162.397 23.5264 161.915 24.065C161.437 24.6036 161.195 25.2386 161.195 25.9653V32.5413H158.602V24.6247C158.602 23.6511 158.57 22.595 158.508 21.452H160.786L160.908 23.1854H160.979C161.281 22.6468 161.732 22.2023 162.323 21.8471C163.025 21.4332 163.812 21.2239 164.673 21.2239C165.762 21.2239 166.667 21.5578 167.387 22.2281C168.283 23.049 168.731 24.2743 168.731 25.9018V32.5437Z" fill="white"/>
<path d="M175.879 32.5421H173.289V16.3679H175.879V32.5421Z" fill="white"/>
<path d="M191.142 26.908C191.142 28.6131 190.629 30.0102 189.605 31.1062C188.531 32.2327 187.106 32.7948 185.332 32.7948C183.618 32.7948 182.255 32.2562 181.24 31.1744C180.226 30.0948 179.719 28.7331 179.719 27.0914C179.719 25.3745 180.241 23.9657 181.29 22.8721C182.339 21.7785 183.749 21.2305 185.523 21.2305C187.237 21.2305 188.611 21.7691 189.655 22.8486C190.644 23.8975 191.142 25.2522 191.142 26.908ZM188.45 26.988C188.45 25.9649 188.217 25.0876 187.755 24.3562C187.213 23.4718 186.436 23.0297 185.431 23.0297C184.387 23.0297 183.596 23.4718 183.054 24.3562C182.589 25.0876 182.359 25.979 182.359 27.0326C182.359 28.0557 182.591 28.933 183.054 29.6644C183.615 30.5488 184.397 30.9909 185.407 30.9909C186.396 30.9909 187.171 30.5417 187.73 29.6409C188.212 28.8954 188.45 28.011 188.45 26.988Z" fill="white"/>
<path d="M203.692 32.5432H201.364L201.171 31.2661H201.099C200.302 32.2845 199.167 32.7948 197.692 32.7948C196.591 32.7948 195.701 32.4585 195.03 31.7906C194.422 31.1838 194.117 30.4288 194.117 29.5327C194.117 28.178 194.711 27.1455 195.906 26.4306C197.098 25.7156 198.776 25.3651 200.936 25.3816V25.1746C200.936 23.7141 200.129 22.985 198.514 22.985C197.363 22.985 196.349 23.2602 195.473 23.8058L194.946 22.1877C196.03 21.5503 197.368 21.2305 198.947 21.2305C201.995 21.2305 203.524 22.7592 203.524 25.8167V29.8996C203.524 31.0074 203.581 31.8893 203.692 32.5432ZM201 28.7331V27.0232C198.14 26.9762 196.71 27.7218 196.71 29.2576C196.71 29.8361 196.873 30.2689 197.207 30.5582C197.541 30.8475 197.967 30.9909 198.474 30.9909C199.043 30.9909 199.575 30.8192 200.06 30.4782C200.547 30.1348 200.847 29.6997 200.958 29.1658C200.985 29.0459 201 28.9001 201 28.7331Z" fill="white"/>
<path d="M218.422 32.542H216.121L216 30.7616H215.929C215.194 32.1164 213.942 32.7937 212.183 32.7937C210.777 32.7937 209.607 32.2692 208.679 31.2203C207.752 30.1713 207.289 28.8096 207.289 27.1373C207.289 25.3428 207.791 23.8893 208.801 22.7792C209.778 21.7444 210.975 21.227 212.4 21.227C213.967 21.227 215.063 21.7279 215.686 22.7322H215.736V16.3679H218.331V29.5551C218.331 30.6346 218.361 31.6295 218.422 32.542ZM215.736 27.8664V26.0178C215.736 25.698 215.711 25.4393 215.664 25.2417C215.518 24.649 215.204 24.1504 214.726 23.7482C214.244 23.3461 213.662 23.1438 212.992 23.1438C212.024 23.1438 211.267 23.5083 210.711 24.2398C210.159 24.9712 209.879 25.9049 209.879 27.0456C209.879 28.1416 210.144 29.0306 210.676 29.715C211.238 30.4441 211.995 30.8087 212.942 30.8087C213.793 30.8087 214.474 30.5053 214.991 29.8961C215.491 29.334 215.736 28.6567 215.736 27.8664Z" fill="white"/>
<path d="M240.599 26.908C240.599 28.6131 240.086 30.0102 239.062 31.1062C237.988 32.2327 236.568 32.7948 234.789 32.7948C233.08 32.7948 231.717 32.2562 230.697 31.1744C229.683 30.0948 229.176 28.7331 229.176 27.0914C229.176 25.3745 229.698 23.9657 230.747 22.8721C231.796 21.7785 233.206 21.2305 234.985 21.2305C236.694 21.2305 238.073 21.7691 239.112 22.8486C240.101 23.8975 240.599 25.2522 240.599 26.908ZM237.912 26.988C237.912 25.9649 237.679 25.0876 237.217 24.3562C236.67 23.4718 235.898 23.0297 234.888 23.0297C233.849 23.0297 233.058 23.4718 232.511 24.3562C232.046 25.0876 231.816 25.979 231.816 27.0326C231.816 28.0557 232.048 28.933 232.511 29.6644C233.072 30.5488 233.854 30.9909 234.864 30.9909C235.853 30.9909 236.633 30.5417 237.192 29.6409C237.669 28.8954 237.912 28.011 237.912 26.988Z" fill="white"/>
<path d="M254.545 32.5437H251.954V26.1935C251.954 24.2367 251.172 23.2583 249.601 23.2583C248.832 23.2583 248.211 23.5264 247.731 24.065C247.251 24.6036 247.011 25.2386 247.011 25.9653V32.5413H244.416V24.6247C244.416 23.6511 244.386 22.595 244.324 21.452H246.6L246.722 23.1854H246.793C247.098 22.6468 247.548 22.2023 248.137 21.8471C248.842 21.4332 249.626 21.2239 250.49 21.2239C251.576 21.2239 252.481 21.5578 253.201 22.2281C254.099 23.049 254.545 24.2743 254.545 25.9018V32.5437Z" fill="white"/>
<path d="M271.994 23.3034H269.139V28.6893C269.139 30.0582 269.646 30.7426 270.65 30.7426C271.115 30.7426 271.501 30.7049 271.806 30.6273L271.872 32.4971C271.36 32.6805 270.687 32.7723 269.859 32.7723C268.834 32.7723 268.038 32.4759 267.461 31.8832C266.882 31.2906 266.595 30.2933 266.595 28.894V23.3034H264.891V21.4572H266.595V19.4251L269.136 18.696V21.4548H271.991V23.3034H271.994Z" fill="white"/>
<path d="M285.715 32.5421H283.12V26.2389C283.12 24.2515 282.338 23.2567 280.772 23.2567C279.569 23.2567 278.748 23.8329 278.298 24.9853C278.221 25.2276 278.176 25.5239 278.176 25.872V32.5397H275.586V16.3679H278.176V23.0497H278.226C279.042 21.8338 280.212 21.227 281.729 21.227C282.803 21.227 283.691 21.561 284.396 22.2312C285.274 23.0662 285.715 24.308 285.715 25.9496V32.5421Z" fill="white"/>
<path d="M299.877 26.4747C299.877 26.9168 299.842 27.2884 299.78 27.5918H292.004C292.039 28.6878 292.41 29.5228 293.13 30.1013C293.788 30.6188 294.637 30.8775 295.676 30.8775C296.826 30.8775 297.875 30.7034 298.82 30.353L299.226 32.0652C298.12 32.5215 296.819 32.7496 295.312 32.7496C293.506 32.7496 292.083 32.2439 291.054 31.2326C290.02 30.2213 289.508 28.8642 289.508 27.1614C289.508 25.4892 289.985 24.0969 290.948 22.9868C291.952 21.8014 293.31 21.2087 295.025 21.2087C296.702 21.2087 297.977 21.8014 298.838 22.9868C299.533 23.9276 299.877 25.0918 299.877 26.4747ZM297.403 25.8373C297.422 25.1059 297.252 24.4756 296.9 23.944C296.45 23.2596 295.765 22.9162 294.837 22.9162C293.991 22.9162 293.301 23.2502 292.774 23.9205C292.343 24.4544 292.088 25.0918 292.004 25.8373H297.403Z" fill="white"/>
</svg>
