<?xml version="1.0" encoding="utf-8"?>
<!-- Generator: Adobe Illustrator 27.2.0, SVG Export Plug-In . SVG Version: 6.00 Build 0)  -->
<svg version="1.1" id="레이어_1" xmlns="http://www.w3.org/2000/svg" xmlns:xlink="http://www.w3.org/1999/xlink" x="0px"
	 y="0px" viewBox="0 0 200 200" style="enable-background:new 0 0 200 200;" xml:space="preserve">
<style type="text/css">
	.st0{fill:none;stroke:#00D9BF;stroke-width:0.8504;stroke-linecap:round;stroke-linejoin:round;}
	.st1{fill:none;stroke:#02B9B9;stroke-width:0.8504;stroke-linecap:round;stroke-linejoin:round;}
	.st2{fill:none;stroke:#003D60;stroke-width:3;stroke-linecap:round;stroke-miterlimit:10;}
	.st3{fill:#003D60;}
	.st4{fill:none;stroke:#003D60;stroke-width:3;stroke-miterlimit:10;}
	.st5{fill:#02B9B9;}
</style>
<g>
	<g>
		<path class="st0" d="M53,112.1c0,0,0.6-0.4,0.6-0.3c0.1,0.2-4.7,5.3-4.6,5.5c0.2,0.3,6.1-3.8,6.2-3.6c0.4,0.7-8.8,7.6-8.7,7.9
			c0.1,0.2,9.8-6.6,10.3-5.9c0.5,0.8-11.9,8.8-11.6,9.3c0.6,1,12.5-8.2,12.9-7.5c0.2,0.4-14,8.9-13.4,10c0.2,0.3,14-9.1,14.5-8.3
			c0.5,0.8-14.8,9.6-14.2,10.6c0.5,0.9,14.8-9.6,15.3-8.8c0.5,0.8-14.7,10.5-14.5,10.9c0.4,0.8,15-9.6,15.4-8.9
			c0.5,0.9-15.1,9.3-14.5,10.3c0.2,0.4,14.7-9.4,15.1-8.7c0.7,1.1-13.7,9.7-13.2,10.5c0.3,0.5,13.6-8.3,13.8-8
			c0.5,0.8-12.2,8.4-11.9,9c0.4,0.6,11.5-7.4,11.9-6.8c0.4,0.7-9.6,7-9.3,7.4c0.2,0.3,8.4-5.2,8.6-4.9"/>
	</g>
</g>
<g>
	<g>
		<path class="st1" d="M73.2,71.8c0,0,0.6-0.4,0.6-0.3c0.1,0.2-4.7,5.3-4.5,5.5c0.2,0.3,6.1-3.8,6.2-3.6c0.4,0.7-8.8,7.6-8.7,7.9
			c0.1,0.2,9.8-6.6,10.2-5.9c0.5,0.8-11.9,8.8-11.6,9.3c0.6,1,12.5-8.2,12.9-7.4c0.2,0.4-14,8.9-13.4,10c0.2,0.3,14-9.1,14.4-8.3
			c0.5,0.8-14.8,9.6-14.2,10.6c0.5,0.9,14.8-9.5,15.2-8.8c0.5,0.8-14.6,10.4-14.4,10.9c0.4,0.8,15-9.5,15.3-8.9
			c0.5,0.9-15,9.2-14.4,10.3c0.2,0.4,14.6-9.4,15-8.7c0.7,1.1-13.5,9.6-13.1,10.4c0.3,0.5,13.5-8.2,13.7-7.9
			c0.5,0.8-12.1,8.3-11.7,8.9c0.3,0.6,11.3-7.3,11.7-6.7c0.4,0.7-9.3,6.9-9.1,7.3c0.2,0.3,8.2-5,8.3-4.8"/>
	</g>
</g>
<path class="st2" d="M54.3,123.3c0.6,4.5-2.8,9.5-8.4,9.5s-9.5-5-8.9-9.5c0.8-6.7,8.6-15.1,8.6-15.1S53.5,116.6,54.3,123.3z"/>
<g>
	<path class="st3" d="M44.7,113.7c-0.5,1.1-1,2.1-1.4,3.2c-0.3,1.2-0.7,2.1-1.7,3c0,0-0.1,0-0.2,0c-0.5-1.3-0.1-2.5,0.8-3.5
		c0.7-1,1.5-1.9,2.4-2.7C44.7,113.5,44.8,113.6,44.7,113.7L44.7,113.7z"/>
</g>
<path class="st4" d="M75.2,83.8c0.6,4.5-2.8,9.5-8.4,9.5s-9.5-5-8.9-9.5c0.8-6.7,8.5-15,8.5-15S74.3,77.1,75.2,83.8z"/>
<path class="st5" d="M57.9,75.4c-0.7,0.9-2,1.5-2.7,0.9c-0.7-0.6-0.4-2.1,0.4-2.9c1.3-1.2,3.7-2,3.7-2S58.9,74,57.9,75.4z"/>
<path class="st5" d="M55.2,81.1c-0.2,0.8-1,1.6-1.7,1.3s-0.8-1.4-0.4-2.1c0.6-1.2,2.1-2.3,2.1-2.3S55.6,79.8,55.2,81.1z"/>
<g>
	<path d="M36.7,90.5h11.4v3.7H32.3v-24h4.4V90.5z"/>
	<path d="M94.9,92.9c-1.8-1-3.2-2.5-4.2-4.4c-1-1.9-1.5-4-1.5-6.4c0-2.4,0.5-4.5,1.5-6.4c1-1.9,2.4-3.3,4.2-4.4
		c1.8-1,3.8-1.6,6.1-1.6c1.6,0,3.2,0.3,4.6,0.9c1.4,0.6,2.7,1.5,3.8,2.6l-2.8,3c-0.6-0.8-1.4-1.5-2.5-2c-1-0.5-2.1-0.8-3.2-0.8
		c-1.5,0-2.8,0.3-3.9,1c-1.1,0.7-2,1.7-2.6,3c-0.6,1.3-0.9,2.8-0.9,4.5c0,1.7,0.3,3.2,0.9,4.5c0.6,1.3,1.5,2.3,2.6,3
		c1.1,0.7,2.4,1,3.9,1c1.2,0,2.2-0.2,3.2-0.7c0.9-0.5,1.7-1.1,2.3-1.9l3,2.8c-1.2,1.2-2.4,2.1-3.8,2.7c-1.4,0.6-2.9,0.9-4.6,0.9
		C98.7,94.5,96.7,93.9,94.9,92.9z"/>
	<path d="M142.1,94.2h-4.7L135,88h-10l-2.5,6.2h-4.7l9.6-24h5.2L142.1,94.2z M133.5,84.3l-3.4-8.8l-3.6,8.8H133.5z"/>
	<path d="M156.3,90.5h11.4v3.7h-15.7v-24h4.4V90.5z"/>
	<path d="M26.7,132.7h-4.4v-10.5H11.2v10.5H6.8v-24h4.4v9.8h11.2v-9.8h4.4V132.7z"/>
	<path d="M75.7,128.9h11.4v3.7H71.3v-24h4.4V128.9z"/>
	<path d="M101.9,108.6v24h-4.4v-24H101.9z"/>
	<path d="M113.1,108.6h8.4c2.3,0,4.4,0.5,6.2,1.5c1.8,1,3.2,2.4,4.3,4.3c1,1.8,1.5,3.9,1.5,6.2c0,2.3-0.5,4.4-1.5,6.2
		c-1,1.8-2.4,3.2-4.3,4.3c-1.8,1-3.9,1.5-6.2,1.5h-8.4V108.6z M125.5,127.9c1.2-0.7,2.1-1.6,2.7-2.9c0.6-1.3,0.9-2.7,0.9-4.3
		c0-1.6-0.3-3.1-0.9-4.3c-0.6-1.3-1.5-2.2-2.7-2.9c-1.2-0.7-2.5-1-4.1-1l-4,0v16.4l4,0C123,128.9,124.4,128.5,125.5,127.9z"/>
	<path d="M164.9,132.7h-4.7l-2.4-6.2h-10l-2.5,6.2h-4.7l9.6-24h5.2L164.9,132.7z M156.3,122.7l-3.4-8.8l-3.6,8.8H156.3z"/>
	<path d="M183.6,123.3v9.4h-4.4v-9.4l-9.5-14.6h5.2l6.5,10.6l6.5-10.6h5.2L183.6,123.3z"/>
</g>
</svg>
